<svg xmlns="http://www.w3.org/2000/svg" xmlns:xlink="http://www.w3.org/1999/xlink" viewBox="0 0 705 600" width="705"
    height="600" preserveAspectRatio="xMidYMid meet"
    style="width: 100%; height: 100%; transform: translate3d(0px, 0px, 0px); content-visibility: visible;">
    <defs>
        <clipPath id="__lottie_element_4827">
            <rect width="705" height="600" x="0" y="0"></rect>
        </clipPath>
    </defs>
    <g clip-path="url(#__lottie_element_4827)">
        <g transform="matrix(0.7532800436019897,0,0,0.7532800436019897,348.91900634765625,277.30999755859375)"
            opacity="1" style="display: block;">
            <g opacity="1" transform="matrix(3,0,0,3,0,0)">
                <path fill="rgb(30,36,58)" fill-opacity="1"
                    d=" M0.09200000017881393,27.33799934387207 C-4.0279998779296875,27.33799934387207 -7.877999782562256,26.908000946044922 -10.748000144958496,26.13800048828125 C-14.418000221252441,25.13800048828125 -16.277999877929688,23.648000717163086 -16.277999877929688,21.687999725341797 C-16.277999877929688,21.148000717163086 -15.847999572753906,20.718000411987305 -15.307999610900879,20.718000411987305 C-14.777999877929688,20.718000411987305 -14.347999572753906,21.148000717163086 -14.347999572753906,21.687999725341797 C-14.347999572753906,23.47800064086914 -8.82800006866455,25.408000946044922 0.09200000017881393,25.408000946044922 C9.001999855041504,25.408000946044922 14.522000312805176,23.47800064086914 14.522000312805176,21.687999725341797 C14.522000312805176,21.148000717163086 14.961999893188477,20.718000411987305 15.491999626159668,20.718000411987305 C16.031999588012695,20.718000411987305 16.461999893188477,21.148000717163086 16.461999893188477,21.687999725341797 C16.461999893188477,23.648000717163086 14.60200023651123,25.13800048828125 10.932000160217285,26.13800048828125 C8.062000274658203,26.908000946044922 4.211999893188477,27.33799934387207 0.09200000017881393,27.33799934387207 M-15.87,-8.52 C-17.15,-8.52 -18.55,-8.68 -20.07,-9.03 C-20.39,-9.11 -20.65,-9.34 -20.76,-9.65 C-20.87,-9.95 -20.82,-10.3 -20.62,-10.56 C-18.23,-13.72 -18.71,-14.73 -19.44,-16.25 C-19.86,-17.13 -20.39,-18.22 -20.39,-19.77 C-20.39,-22.84 -19.13,-26.17 -17.02,-28.67 C-15.21,-30.82 -11.94,-33.37 -6.64,-33.37 C-3.54,-33.37 0.54,-33.04 3.68,-30.68 C3.74,-30.72 3.8,-30.75 3.87,-30.77 C5.17,-31.23 6.54,-31.47 7.94,-31.47 C14.64,-31.47 20.09,-26.02 20.09,-19.31 C20.09,-16.68 19.26,-14.17 17.69,-12.06 C17.53,-11.84 17.28,-11.7 17.01,-11.68 C16.74,-11.65 16.47,-11.73 16.27,-11.91 C14.82,-13.2 12.9,-14 11.05,-14.77 C8.58,-15.79 6.03,-16.84 4.85,-19.1 C1.41,-19.57 -0.76,-17.45 -3.49,-14.79 C-6.41,-11.94 -9.92,-8.52 -15.87,-8.52 M-18.21,-10.63 C-11.58,-9.6 -8.16,-12.94 -4.83,-16.17 C-1.98,-18.97 0.98,-21.85 5.69,-20.92 C6.01,-20.85 6.28,-20.63 6.4,-20.33 C7.15,-18.47 9.29,-17.58 11.79,-16.55 C13.45,-15.85 15.19,-15.14 16.7,-14.04 C17.65,-15.63 18.15,-17.43 18.15,-19.31 C18.15,-24.94 13.58,-29.53 7.94,-29.53 C7.03,-29.53 6.15,-29.41 5.28,-29.18 C5.67,-28.76 6.01,-28.28 6.34,-27.77 C6.61,-27.31 6.47,-26.72 6.01,-26.44 C5.57,-26.15 4.96,-26.29 4.69,-26.75 C2.69,-29.99 -0.81,-31.43 -6.64,-31.43 C-14.7,-31.43 -18.45,-24.47 -18.45,-19.76 C-18.45,-18.66 -18.09,-17.89 -17.7,-17.08 C-16.8,-15.22 -16.33,-13.62 -18.21,-10.63 M-31.408000946044922,30.933000564575195 C-31.47800064086914,30.933000564575195 -31.538000106811523,30.933000564575195 -31.607999801635742,30.92300033569336 C-32.12799835205078,30.812999725341797 -32.46799850463867,30.30299949645996 -32.358001708984375,29.773000717163086 C-31.378000259399414,24.982999801635742 -29.107999801635742,23.093000411987305 -23.027999877929688,22.003000259399414 C-23.027999877929688,22.003000259399414 -14.727999687194824,20.042999267578125 -14.727999687194824,20.042999267578125 C-12.64799976348877,19.55299949645996 -11.14799976348877,17.67300033569336 -11.14799976348877,15.583000183105469 C-11.14799976348877,15.583000183105469 -11.14799976348877,7.922999858856201 -11.14799976348877,7.922999858856201 C-11.14799976348877,7.382999897003174 -10.708000183105469,6.953000068664551 -10.178000450134277,6.953000068664551 C-9.637999534606934,6.953000068664551 -9.208000183105469,7.382999897003174 -9.208000183105469,7.922999858856201 C-9.208000183105469,7.922999858856201 -9.208000183105469,15.583000183105469 -9.208000183105469,15.583000183105469 C-9.208000183105469,18.562999725341797 -11.338000297546387,21.222999572753906 -14.277999877929688,21.92300033569336 C-14.277999877929688,21.92300033569336 -22.607999801635742,23.89299964904785 -22.607999801635742,23.89299964904785 C-22.628000259399414,23.89299964904785 -22.648000717163086,23.89299964904785 -22.658000946044922,23.902999877929688 C-28.488000869750977,24.94300079345703 -29.738000869750977,26.60300064086914 -30.45800018310547,30.163000106811523 C-30.558000564575195,30.62299919128418 -30.95800018310547,30.933000564575195 -31.408000946044922,30.933000564575195 M31.60099983215332,30.933000564575195 C31.150999069213867,30.933000564575195 30.740999221801758,30.62299919128418 30.650999069213867,30.163000106811523 C29.981000900268555,26.882999420166016 27.60099983215332,25.003000259399414 22.701000213623047,23.89299964904785 C22.701000213623047,23.89299964904785 14.461000442504883,21.92300033569336 14.461000442504883,21.92300033569336 C11.571000099182129,21.232999801635742 9.541000366210938,18.62299919128418 9.541000366210938,15.583000183105469 C9.541000366210938,15.583000183105469 9.541000366210938,7.922999858856201 9.541000366210938,7.922999858856201 C9.541000366210938,7.382999897003174 9.970999717712402,6.953000068664551 10.51099967956543,6.953000068664551 C11.041000366210938,6.953000068664551 11.470999717712402,7.382999897003174 11.470999717712402,7.922999858856201 C11.470999717712402,7.922999858856201 11.470999717712402,15.583000183105469 11.470999717712402,15.583000183105469 C11.470999717712402,17.722999572753906 12.890999794006348,19.562999725341797 14.91100025177002,20.042999267578125 C14.91100025177002,20.042999267578125 23.141000747680664,22.003000259399414 23.141000747680664,22.003000259399414 C26.951000213623047,22.87299919128418 31.47100067138672,24.542999267578125 32.55099868774414,29.773000717163086 C32.6510009765625,30.30299949645996 32.31100082397461,30.812999725341797 31.791000366210938,30.92300033569336 C31.731000900268555,30.933000564575195 31.660999298095703,30.933000564575195 31.60099983215332,30.933000564575195 M2.805999994277954,14.168000221252441 C2.805999994277954,14.168000221252441 -2.803999900817871,14.168000221252441 -2.803999900817871,14.168000221252441 C-4.383999824523926,14.168000221252441 -5.854000091552734,13.57800006866455 -6.934000015258789,12.48799991607666 C-6.934000015258789,12.48799991607666 -14.46399974822998,4.98799991607666 -14.46399974822998,4.98799991607666 C-16.354000091552734,3.0980000495910645 -17.393999099731445,0.5479999780654907 -17.393999099731445,-2.181999921798706 C-17.393999099731445,-2.181999921798706 -17.393999099731445,-9.491999626159668 -17.393999099731445,-9.491999626159668 C-17.393999099731445,-10.022000312805176 -16.964000701904297,-10.461999893188477 -16.423999786376953,-10.461999893188477 C-15.894000053405762,-10.461999893188477 -15.46399974822998,-10.022000312805176 -15.46399974822998,-9.491999626159668 C-15.46399974822998,-9.491999626159668 -15.46399974822998,-2.181999921798706 -15.46399974822998,-2.181999921798706 C-15.46399974822998,0.03799999877810478 -14.62399959564209,2.0980000495910645 -13.093999862670898,3.618000030517578 C-13.093999862670898,3.618000030517578 -5.573999881744385,11.118000030517578 -5.573999881744385,11.118000030517578 C-4.854000091552734,11.838000297546387 -3.874000072479248,12.23799991607666 -2.803999900817871,12.23799991607666 C-2.803999900817871,12.23799991607666 2.805999994277954,12.23799991607666 2.805999994277954,12.23799991607666 C3.885999917984009,12.23799991607666 4.875999927520752,11.838000297546387 5.585999965667725,11.128000259399414 C5.585999965667725,11.128000259399414 13.185999870300293,3.5980000495910645 13.185999870300293,3.5980000495910645 C14.765999794006348,2.0179998874664307 15.645999908447266,-0.041999999433755875 15.645999908447266,-2.181999921798706 C15.645999908447266,-2.181999921798706 15.645999908447266,-12.76200008392334 15.645999908447266,-12.76200008392334 C15.645999908447266,-13.302000045776367 16.076000213623047,-13.732000350952148 16.606000900268555,-13.732000350952148 C17.145999908447266,-13.732000350952148 17.576000213623047,-13.302000045776367 17.576000213623047,-12.76200008392334 C17.576000213623047,-12.76200008392334 17.576000213623047,-2.181999921798706 17.576000213623047,-2.181999921798706 C17.576000213623047,0.4779999852180481 16.506000518798828,3.0179998874664307 14.555999755859375,4.9679999351501465 C14.555999755859375,4.9679999351501465 6.955999851226807,12.498000144958496 6.955999851226807,12.498000144958496 C5.875999927520752,13.57800006866455 4.395999908447266,14.168000221252441 2.805999994277954,14.168000221252441 M-0.004999999888241291,44.91400146484375 C-11.994999885559082,44.91400146484375 -23.274999618530273,40.24399948120117 -31.7549991607666,31.763999938964844 C-40.244998931884766,23.27400016784668 -44.915000915527344,11.994000434875488 -44.915000915527344,0.004000000189989805 C-44.915000915527344,-11.996000289916992 -40.244998931884766,-23.275999069213867 -31.7549991607666,-31.756000518798828 C-23.274999618530273,-40.24599838256836 -11.994999885559082,-44.91600036621094 -0.004999999888241291,-44.91600036621094 C11.994999885559082,-44.91600036621094 23.274999618530273,-40.24599838256836 31.7549991607666,-31.756000518798828 C40.244998931884766,-23.275999069213867 44.915000915527344,-11.996000289916992 44.915000915527344,0.004000000189989805 C44.915000915527344,11.994000434875488 40.244998931884766,23.27400016784668 31.7549991607666,31.763999938964844 C23.274999618530273,40.24399948120117 11.994999885559082,44.91400146484375 -0.004999999888241291,44.91400146484375 M0,-42.98099899291992 C-23.700000762939453,-42.98099899291992 -42.97999954223633,-23.701000213623047 -42.97999954223633,-0.0010000000474974513 C-42.97999954223633,23.698999404907227 -23.700000762939453,42.979000091552734 0,42.979000091552734 C23.700000762939453,42.979000091552734 42.97999954223633,23.698999404907227 42.97999954223633,-0.0010000000474974513 C42.97999954223633,-23.701000213623047 23.700000762939453,-42.98099899291992 0,-42.98099899291992">
                </path>
                <g opacity="1" transform="matrix(1,0,0,1,-0.367000013589859,-20.94300079345703)"></g>
                <g opacity="1" transform="matrix(1,0,0,1,0,0)"></g>
            </g>
        </g>
        <g transform="matrix(0.9999999403953552,0,0,0.9999999403953552,93.08100128173828,494.82598876953125)"
            opacity="0.9999999607408632" style="display: none;">
            <g opacity="1" transform="matrix(3,0,0,3,0,0)">
                <path fill="rgb(30,36,58)" fill-opacity="1"
                    d=" M0.003000000026077032,31.031999588012695 C-17.10700035095215,31.031999588012695 -31.027000427246094,17.11199951171875 -31.027000427246094,0.0020000000949949026 C-31.027000427246094,-17.107999801635742 -17.10700035095215,-31.027999877929688 0.003000000026077032,-31.027999877929688 C17.113000869750977,-31.027999877929688 31.023000717163086,-17.107999801635742 31.023000717163086,0.0020000000949949026 C31.023000717163086,17.11199951171875 17.113000869750977,31.031999588012695 0.003000000026077032,31.031999588012695 M-0.0020000000949949026,-29.093000411987305 C-16.04199981689453,-29.093000411987305 -29.091999053955078,-16.042999267578125 -29.091999053955078,-0.003000000026077032 C-29.091999053955078,16.047000885009766 -16.04199981689453,29.097000122070312 -0.0020000000949949026,29.097000122070312 C16.038000106811523,29.097000122070312 29.08799934387207,16.047000885009766 29.08799934387207,-0.003000000026077032 C29.08799934387207,-16.042999267578125 16.038000106811523,-29.093000411987305 -0.0020000000949949026,-29.093000411987305 M13.196000099182129,17.465999603271484 C12.666000366210938,17.465999603271484 12.22599983215332,17.035999298095703 12.22599983215332,16.496000289916992 C12.22599983215332,9.755999565124512 6.745999813079834,4.265999794006348 -0.004000000189989805,4.265999794006348 C-6.74399995803833,4.265999794006348 -12.234000205993652,9.755999565124512 -12.234000205993652,16.496000289916992 C-12.234000205993652,17.035999298095703 -12.663999557495117,17.465999603271484 -13.194000244140625,17.465999603271484 C-13.734000205993652,17.465999603271484 -14.163999557495117,17.035999298095703 -14.163999557495117,16.496000289916992 C-14.163999557495117,8.685999870300293 -7.814000129699707,2.3359999656677246 -0.004000000189989805,2.3359999656677246 C7.806000232696533,2.3359999656677246 14.166000366210938,8.685999870300293 14.166000366210938,16.496000289916992 C14.166000366210938,17.035999298095703 13.72599983215332,17.465999603271484 13.196000099182129,17.465999603271484 M0,4.27 C-5.99,4.27 -10.87,-0.61 -10.87,-6.6 C-10.87,-12.59 -5.99,-17.47 0,-17.47 C5.99,-17.47 10.87,-12.59 10.87,-6.6 C10.87,-0.61 5.99,4.27 0,4.27 M0,-15.53 C-4.93,-15.53 -8.94,-11.52 -8.94,-6.6 C-8.94,-1.67 -4.93,2.34 0,2.34 C4.93,2.34 8.94,-1.67 8.94,-6.6 C8.94,-11.52 4.93,-15.53 0,-15.53">
                </path>
                <g opacity="1" transform="matrix(1,0,0,1,0,0)"></g>
                <g opacity="1" transform="matrix(1,0,0,1,0,-6.598999977111816)"></g>
            </g>
        </g>
        <g transform="matrix(1,0,0,1,265.2640075683594,467.3699951171875)" opacity="0.2" style="display: none;">
            <g opacity="1" transform="matrix(3,0,0,3,0,0)">
                <path fill="rgb(30,36,58)" fill-opacity="1"
                    d=" M-17.482999801635742,14.357000350952148 C-17.482999801635742,14.357000350952148 -19.273000717163086,14.357000350952148 -19.273000717163086,14.357000350952148 C-19.843000411987305,14.357000350952148 -20.312999725341797,13.897000312805176 -20.312999725341797,13.317000389099121 C-20.312999725341797,12.746999740600586 -19.843000411987305,12.277000427246094 -19.273000717163086,12.277000427246094 C-19.273000717163086,12.277000427246094 -17.482999801635742,12.277000427246094 -17.482999801635742,12.277000427246094 C-16.913000106811523,12.277000427246094 -16.44300079345703,12.746999740600586 -16.44300079345703,13.317000389099121 C-16.44300079345703,13.897000312805176 -16.913000106811523,14.357000350952148 -17.482999801635742,14.357000350952148 M11.68,14.36 C11.68,14.36 7.66,14.36 7.66,14.36 C7.09,14.36 6.62,13.9 6.62,13.32 C6.62,12.75 7.09,12.28 7.66,12.28 C7.66,12.28 11.68,12.28 11.68,12.28 C12.25,12.28 12.72,12.75 12.72,13.32 C12.72,13.9 12.25,14.36 11.68,14.36 M2.01,14.36 C2.01,14.36 -2.01,14.36 -2.01,14.36 C-2.58,14.36 -3.05,13.9 -3.05,13.32 C-3.05,12.75 -2.58,12.28 -2.01,12.28 C-2.01,12.28 2.01,12.28 2.01,12.28 C2.58,12.28 3.05,12.75 3.05,13.32 C3.05,13.9 2.58,14.36 2.01,14.36 M-7.66,14.36 C-7.66,14.36 -11.68,14.36 -11.68,14.36 C-12.25,14.36 -12.72,13.9 -12.72,13.32 C-12.72,12.75 -12.25,12.28 -11.68,12.28 C-11.68,12.28 -7.66,12.28 -7.66,12.28 C-7.09,12.28 -6.62,12.75 -6.62,13.32 C-6.62,13.9 -7.09,14.36 -7.66,14.36 M19.274999618530273,14.361000061035156 C19.274999618530273,14.361000061035156 17.334999084472656,14.361000061035156 17.334999084472656,14.361000061035156 C16.764999389648438,14.361000061035156 16.295000076293945,13.890999794006348 16.295000076293945,13.321000099182129 C16.295000076293945,12.741000175476074 16.764999389648438,12.281000137329102 17.334999084472656,12.281000137329102 C17.334999084472656,12.281000137329102 18.225000381469727,12.281000137329102 18.225000381469727,12.281000137329102 C18.225000381469727,12.281000137329102 18.225000381469727,11.531000137329102 18.225000381469727,11.531000137329102 C18.225000381469727,10.961000442504883 18.69499969482422,10.491000175476074 19.274999618530273,10.491000175476074 C19.844999313354492,10.491000175476074 20.315000534057617,10.961000442504883 20.315000534057617,11.531000137329102 C20.315000534057617,11.531000137329102 20.315000534057617,13.321000099182129 20.315000534057617,13.321000099182129 C20.315000534057617,13.890999794006348 19.844999313354492,14.361000061035156 19.274999618530273,14.361000061035156 M19.27,7.36 C18.7,7.36 18.23,6.9 18.23,6.32 C18.23,6.32 18.23,2.6 18.23,2.6 C18.23,2.03 18.7,1.56 19.27,1.56 C19.85,1.56 20.31,2.03 20.31,2.6 C20.31,2.6 20.31,6.32 20.31,6.32 C20.31,6.9 19.85,7.36 19.27,7.36 M19.27,-1.57 C18.7,-1.57 18.23,-2.03 18.23,-2.61 C18.23,-2.61 18.23,-6.33 18.23,-6.33 C18.23,-6.9 18.7,-7.37 19.27,-7.37 C19.85,-7.37 20.31,-6.9 20.31,-6.33 C20.31,-6.33 20.31,-2.61 20.31,-2.61 C20.31,-2.03 19.85,-1.57 19.27,-1.57 M19.268999099731445,-10.340999603271484 C18.698999404907227,-10.340999603271484 18.229000091552734,-10.810999870300293 18.229000091552734,-11.380999565124512 C18.229000091552734,-11.380999565124512 18.229000091552734,-13.321000099182129 18.229000091552734,-13.321000099182129 C18.229000091552734,-13.890999794006348 18.698999404907227,-14.361000061035156 19.268999099731445,-14.361000061035156 C19.849000930786133,-14.361000061035156 20.30900001525879,-13.890999794006348 20.30900001525879,-13.321000099182129 C20.30900001525879,-13.321000099182129 20.30900001525879,-11.380999565124512 20.30900001525879,-11.380999565124512 C20.30900001525879,-10.810999870300293 19.849000930786133,-10.340999603271484 19.268999099731445,-10.340999603271484">
                </path>
                <g opacity="1" transform="matrix(1,0,0,1,0,13.319000244140625)"></g>
                <g opacity="1" transform="matrix(1,0,0,1,19.270999908447266,0)"></g>
            </g>
        </g>
        <g transform="matrix(1,0,0,1,98.59600067138672,143.13299560546875)" opacity="1" style="display: none;">
            <g opacity="1" transform="matrix(3,0,0,3,0,0)">
                <path fill="rgb(30,36,58)" fill-opacity="1"
                    d=" M22.09,-9.5 C19.68,-9.5 17.73,-11.45 17.73,-13.85 C17.73,-16.26 19.68,-18.21 22.09,-18.21 C24.49,-18.21 26.44,-16.26 26.44,-13.85 C26.44,-11.45 24.49,-9.5 22.09,-9.5 M22.08,-16.13 C20.83,-16.13 19.81,-15.11 19.81,-13.86 C19.81,-12.6 20.83,-11.58 22.08,-11.58 C23.34,-11.58 24.36,-12.6 24.36,-13.86 C24.36,-15.11 23.34,-16.13 22.08,-16.13 M9.02,-9.5 C6.61,-9.5 4.66,-11.45 4.66,-13.85 C4.66,-16.26 6.61,-18.21 9.02,-18.21 C11.42,-18.21 13.37,-16.26 13.37,-13.85 C13.37,-11.45 11.42,-9.5 9.02,-9.5 M9.01,-16.13 C7.76,-16.13 6.74,-15.11 6.74,-13.86 C6.74,-12.6 7.76,-11.58 9.01,-11.58 C10.27,-11.58 11.29,-12.6 11.29,-13.86 C11.29,-15.11 10.27,-16.13 9.01,-16.13 M-4.04,-9.5 C-6.45,-9.5 -8.4,-11.45 -8.4,-13.85 C-8.4,-16.26 -6.45,-18.21 -4.04,-18.21 C-1.64,-18.21 0.31,-16.26 0.31,-13.85 C0.31,-11.45 -1.64,-9.5 -4.04,-9.5 M-4.05,-16.13 C-5.3,-16.13 -6.32,-15.11 -6.32,-13.86 C-6.32,-12.6 -5.3,-11.58 -4.05,-11.58 C-2.79,-11.58 -1.77,-12.6 -1.77,-13.86 C-1.77,-15.11 -2.79,-16.13 -4.05,-16.13 M12.27,10.65 C11.99,10.65 11.73,10.54 11.53,10.34 C11.53,10.34 3.71,2.52 3.71,2.52 C3.71,2.52 -8.25,2.52 -8.25,2.52 C-12.07,2.52 -15.18,-0.59 -15.18,-4.41 C-15.18,-4.41 -15.18,-22.72 -15.18,-22.72 C-15.18,-26.54 -12.07,-29.65 -8.25,-29.65 C-8.25,-29.65 26.28,-29.65 26.28,-29.65 C30.1,-29.65 33.21,-26.54 33.21,-22.72 C33.21,-22.72 33.21,-4.41 33.21,-4.41 C33.21,-0.59 30.1,2.52 26.28,2.52 C26.28,2.52 18.72,2.52 18.72,2.52 C18.72,2.52 13.11,10.22 13.11,10.22 C12.93,10.47 12.65,10.62 12.35,10.64 C12.32,10.65 12.29,10.65 12.27,10.65 C12.27,10.65 12.27,10.65 12.27,10.65z M-8.25,-27.57 C-10.92,-27.57 -13.1,-25.39 -13.1,-22.72 C-13.1,-22.72 -13.1,-4.41 -13.1,-4.41 C-13.1,-1.74 -10.92,0.44 -8.25,0.44 C-8.25,0.44 4.14,0.44 4.14,0.44 C4.41,0.44 4.68,0.56 4.88,0.74 C4.88,0.74 12.14,8.01 12.14,8.01 C12.14,8.01 17.35,0.86 17.35,0.86 C17.55,0.6 17.86,0.44 18.19,0.44 C18.19,0.44 26.28,0.44 26.28,0.44 C28.95,0.44 31.13,-1.74 31.13,-4.41 C31.13,-4.41 31.13,-22.72 31.13,-22.72 C31.13,-25.39 28.95,-27.57 26.28,-27.57 C26.28,-27.57 -8.25,-27.57 -8.25,-27.57z M-0.10300000011920929,29.650999069213867 C-0.37299999594688416,29.650999069213867 -0.6430000066757202,29.541000366210938 -0.8330000042915344,29.340999603271484 C-0.8330000042915344,29.340999603271484 -10.402999877929688,19.7810001373291 -10.402999877929688,19.7810001373291 C-10.402999877929688,19.7810001373291 -25.01300048828125,19.7810001373291 -25.01300048828125,19.7810001373291 C-29.533000946044922,19.7810001373291 -33.2130012512207,16.10099983215332 -33.2130012512207,11.581000328063965 C-33.2130012512207,11.581000328063965 -33.2130012512207,-10.64900016784668 -33.2130012512207,-10.64900016784668 C-33.2130012512207,-15.168999671936035 -29.533000946044922,-18.849000930786133 -25.01300048828125,-18.849000930786133 C-25.01300048828125,-18.849000930786133 -15.163000106811523,-18.849000930786133 -15.163000106811523,-18.849000930786133 C-14.583000183105469,-18.849000930786133 -14.123000144958496,-18.378999710083008 -14.123000144958496,-17.80900001525879 C-14.123000144958496,-17.229000091552734 -14.583000183105469,-16.768999099731445 -15.163000106811523,-16.768999099731445 C-15.163000106811523,-16.768999099731445 -25.01300048828125,-16.768999099731445 -25.01300048828125,-16.768999099731445 C-28.382999420166016,-16.768999099731445 -31.132999420166016,-14.019000053405762 -31.132999420166016,-10.64900016784668 C-31.132999420166016,-10.64900016784668 -31.132999420166016,11.581000328063965 -31.132999420166016,11.581000328063965 C-31.132999420166016,14.951000213623047 -28.382999420166016,17.701000213623047 -25.01300048828125,17.701000213623047 C-25.01300048828125,17.701000213623047 -9.972999572753906,17.701000213623047 -9.972999572753906,17.701000213623047 C-9.692999839782715,17.701000213623047 -9.42300033569336,17.81100082397461 -9.232999801635742,18.000999450683594 C-9.232999801635742,18.000999450683594 -0.22300000488758087,27.01099967956543 -0.22300000488758087,27.01099967956543 C-0.22300000488758087,27.01099967956543 6.256999969482422,18.121000289916992 6.256999969482422,18.121000289916992 C6.456999778747559,17.861000061035156 6.767000198364258,17.701000213623047 7.0970001220703125,17.701000213623047 C7.0970001220703125,17.701000213623047 16.927000045776367,17.701000213623047 16.927000045776367,17.701000213623047 C20.297000885009766,17.701000213623047 23.03700065612793,14.951000213623047 23.03700065612793,11.581000328063965 C23.03700065612793,11.581000328063965 23.03700065612793,2.871000051498413 23.03700065612793,2.871000051498413 C23.03700065612793,2.2909998893737793 23.496999740600586,1.8309999704360962 24.07699966430664,1.8309999704360962 C24.64699935913086,1.8309999704360962 25.117000579833984,2.2909998893737793 25.117000579833984,2.871000051498413 C25.117000579833984,2.871000051498413 25.117000579833984,11.581000328063965 25.117000579833984,11.581000328063965 C25.117000579833984,16.10099983215332 21.437000274658203,19.7810001373291 16.927000045776367,19.7810001373291 C16.927000045776367,19.7810001373291 7.626999855041504,19.7810001373291 7.626999855041504,19.7810001373291 C7.626999855041504,19.7810001373291 0.7369999885559082,29.22100067138672 0.7369999885559082,29.22100067138672 C0.5669999718666077,29.47100067138672 0.28700000047683716,29.621000289916992 -0.023000000044703484,29.641000747680664 C-0.0430000014603138,29.650999069213867 -0.0729999989271164,29.650999069213867 -0.10300000011920929,29.650999069213867">
                </path>
                <g opacity="1" transform="matrix(1,0,0,1,9.017000198364258,-9.5)">
                    <g opacity="1" transform="matrix(1,0,0,1,0,-4.3520002365112305)">
                        <g opacity="1" transform="matrix(1,0,0,1,13.064000129699707,0)"></g>
                        <g opacity="1" transform="matrix(1,0,0,1,0,0)"></g>
                        <g opacity="1" transform="matrix(1,0,0,1,-13.064000129699707,0)"></g>
                    </g>
                    <g opacity="1" transform="matrix(1,0,0,1,0,0)"></g>
                </g>
            </g>
        </g>
        <g transform="matrix(1,0,0,1,267.4960021972656,94.1449966430664)" opacity="0.2" style="display: none;">
            <g opacity="1" transform="matrix(3,0,0,3,0,0)">
                <path fill="rgb(30,36,58)" fill-opacity="1"
                    d=" M-16.29199981689453,-10.345999717712402 C-16.29199981689453,-10.345999717712402 -18.082000732421875,-10.345999717712402 -18.082000732421875,-10.345999717712402 C-18.652000427246094,-10.345999717712402 -19.121999740600586,-10.805999755859375 -19.121999740600586,-11.38599967956543 C-19.121999740600586,-11.956000328063965 -18.652000427246094,-12.425999641418457 -18.082000732421875,-12.425999641418457 C-18.082000732421875,-12.425999641418457 -16.29199981689453,-12.425999641418457 -16.29199981689453,-12.425999641418457 C-15.722000122070312,-12.425999641418457 -15.251999855041504,-11.956000328063965 -15.251999855041504,-11.38599967956543 C-15.251999855041504,-10.805999755859375 -15.722000122070312,-10.345999717712402 -16.29199981689453,-10.345999717712402 M10.94,-10.35 C10.94,-10.35 7.22,-10.35 7.22,-10.35 C6.65,-10.35 6.18,-10.81 6.18,-11.39 C6.18,-11.96 6.65,-12.43 7.22,-12.43 C7.22,-12.43 10.94,-12.43 10.94,-12.43 C11.52,-12.43 11.98,-11.96 11.98,-11.39 C11.98,-10.81 11.52,-10.35 10.94,-10.35 M2.01,-10.35 C2.01,-10.35 -1.71,-10.35 -1.71,-10.35 C-2.28,-10.35 -2.75,-10.81 -2.75,-11.39 C-2.75,-11.96 -2.28,-12.43 -1.71,-12.43 C-1.71,-12.43 2.01,-12.43 2.01,-12.43 C2.59,-12.43 3.05,-11.96 3.05,-11.39 C3.05,-10.81 2.59,-10.35 2.01,-10.35 M-6.92,-10.35 C-6.92,-10.35 -10.64,-10.35 -10.64,-10.35 C-11.21,-10.35 -11.68,-10.81 -11.68,-11.39 C-11.68,-11.96 -11.21,-12.43 -10.64,-12.43 C-10.64,-12.43 -6.92,-12.43 -6.92,-12.43 C-6.34,-12.43 -5.88,-11.96 -5.88,-11.39 C-5.88,-10.81 -6.34,-10.35 -6.92,-10.35 M18.083999633789062,-8.406000137329102 C17.503999710083008,-8.406000137329102 17.034000396728516,-8.87600040435791 17.034000396728516,-9.446000099182129 C17.034000396728516,-9.446000099182129 17.034000396728516,-10.345999717712402 17.034000396728516,-10.345999717712402 C17.034000396728516,-10.345999717712402 16.143999099731445,-10.345999717712402 16.143999099731445,-10.345999717712402 C15.574000358581543,-10.345999717712402 15.104000091552734,-10.805999755859375 15.104000091552734,-11.38599967956543 C15.104000091552734,-11.956000328063965 15.574000358581543,-12.425999641418457 16.143999099731445,-12.425999641418457 C16.143999099731445,-12.425999641418457 18.083999633789062,-12.425999641418457 18.083999633789062,-12.425999641418457 C18.65399932861328,-12.425999641418457 19.124000549316406,-11.956000328063965 19.124000549316406,-11.38599967956543 C19.124000549316406,-11.38599967956543 19.124000549316406,-9.446000099182129 19.124000549316406,-9.446000099182129 C19.124000549316406,-8.87600040435791 18.65399932861328,-8.406000137329102 18.083999633789062,-8.406000137329102 M18.08,6.33 C17.51,6.33 17.04,5.86 17.04,5.29 C17.04,5.29 17.04,2.16 17.04,2.16 C17.04,1.59 17.51,1.12 18.08,1.12 C18.66,1.12 19.12,1.59 19.12,2.16 C19.12,2.16 19.12,5.29 19.12,5.29 C19.12,5.86 18.66,6.33 18.08,6.33 M18.08,-1.12 C17.51,-1.12 17.04,-1.59 17.04,-2.15 C17.04,-2.15 17.04,-5.28 17.04,-5.28 C17.04,-5.86 17.51,-6.32 18.08,-6.32 C18.66,-6.32 19.12,-5.86 19.12,-5.28 C19.12,-5.28 19.12,-2.15 19.12,-2.15 C19.12,-1.59 18.66,-1.12 18.08,-1.12 M18.07900047302246,12.427000045776367 C17.509000778198242,12.427000045776367 17.038999557495117,11.956999778747559 17.038999557495117,11.38700008392334 C17.038999557495117,11.38700008392334 17.038999557495117,9.597000122070312 17.038999557495117,9.597000122070312 C17.038999557495117,9.027000427246094 17.509000778198242,8.557000160217285 18.07900047302246,8.557000160217285 C18.659000396728516,8.557000160217285 19.118999481201172,9.027000427246094 19.118999481201172,9.597000122070312 C19.118999481201172,9.597000122070312 19.118999481201172,11.38700008392334 19.118999481201172,11.38700008392334 C19.118999481201172,11.956999778747559 18.659000396728516,12.427000045776367 18.07900047302246,12.427000045776367">
                </path>
                <g opacity="1" transform="matrix(1,0,0,1,0.14900000393390656,-11.383999824523926)"></g>
                <g opacity="1" transform="matrix(1,0,0,1,18.079999923706055,0)"></g>
            </g>
        </g>
        <g transform="matrix(1,0,0,1,615.197998046875,73.2969970703125)" opacity="1" style="display: none;">
            <g opacity="1" transform="matrix(3,0,0,3,0,0)">
                <path fill="rgb(30,36,58)" fill-opacity="1"
                    d=" M0.017000000923871994,16.8439998626709 C0.017000000923871994,16.8439998626709 -0.013000000268220901,16.8439998626709 -0.013000000268220901,16.8439998626709 C-0.2329999953508377,16.8439998626709 -0.4429999887943268,16.77400016784668 -0.6230000257492065,16.634000778198242 C-2.2829999923706055,15.293999671936035 -3.872999906539917,14.053999900817871 -5.422999858856201,12.86400032043457 C-12.312999725341797,7.52400016784668 -17.753000259399414,3.303999900817871 -18.83300018310547,-2.055999994277954 C-19.58300018310547,-5.8460001945495605 -18.812999725341797,-9.62600040435791 -16.71299934387207,-12.425999641418457 C-14.803000450134277,-14.986000061035156 -11.972999572753906,-16.496000289916992 -8.52299976348877,-16.805999755859375 C-5.563000202178955,-17.06599998474121 -2.453000068664551,-15.555999755859375 -0.003000000026077032,-12.736000061035156 C2.4570000171661377,-15.565999984741211 5.577000141143799,-17.076000213623047 8.517000198364258,-16.81599998474121 C11.967000007629395,-16.516000747680664 14.79699993133545,-14.996000289916992 16.716999053955078,-12.446000099182129 C18.816999435424805,-9.63599967956543 19.586999893188477,-5.855999946594238 18.82699966430664,-2.065999984741211 C17.756999969482422,3.303999900817871 12.307000160217285,7.52400016784668 5.416999816894531,12.86400032043457 C3.867000102996826,14.064000129699707 2.2769999504089355,15.303999900817871 0.6169999837875366,16.634000778198242 C0.44699999690055847,16.77400016784668 0.2370000034570694,16.8439998626709 0.017000000923871994,16.8439998626709 M-7.85099983215332,-14.901000022888184 C-8.020999908447266,-14.901000022888184 -8.180999755859375,-14.890999794006348 -8.35099983215332,-14.871000289916992 C-11.230999946594238,-14.621000289916992 -13.590999603271484,-13.371000289916992 -15.170999526977539,-11.270999908447266 C-16.910999298095703,-8.940999984741211 -17.570999145507812,-5.640999794006348 -16.930999755859375,-2.440999984741211 C-16.000999450683594,2.2190001010894775 -10.810999870300293,6.238999843597412 -4.241000175476074,11.329000473022461 C-2.871000051498413,12.388999938964844 -1.4609999656677246,13.48900032043457 -0.0010000000474974513,14.64900016784668 C1.4589999914169312,13.48900032043457 2.8589999675750732,12.39900016784668 4.229000091552734,11.33899974822998 C10.809000015258789,6.238999843597412 15.99899959564209,2.2190001010894775 16.929000854492188,-2.440999984741211 C17.569000244140625,-5.640999794006348 16.909000396728516,-8.951000213623047 15.168999671936035,-11.281000137329102 C13.58899974822998,-13.390999794006348 11.23900032043457,-14.630999565124512 8.348999977111816,-14.890999794006348 C5.758999824523926,-15.121000289916992 2.938999891281128,-13.520999908447266 0.7889999747276306,-10.630999565124512 C0.609000027179718,-10.380999565124512 0.3190000057220459,-10.241000175476074 0.008999999612569809,-10.241000175476074 C0.008999999612569809,-10.241000175476074 -0.010999999940395355,-10.241000175476074 -0.010999999940395355,-10.241000175476074 C-0.32100000977516174,-10.241000175476074 -0.6110000014305115,-10.380999565124512 -0.7910000085830688,-10.630999565124512 C-2.7909998893737793,-13.331000328063965 -5.401000022888184,-14.901000022888184 -7.85099983215332,-14.901000022888184">
                </path>
            </g>
        </g>
        <g transform="matrix(1,0,0,1,456.7820129394531,95.03800201416016)" opacity="0.2" style="display: none;">
            <g opacity="1" transform="matrix(3,0,0,3,0,0)">
                <path fill="rgb(30,36,58)" fill-opacity="1"
                    d=" M26.86400032043457,-10.494999885559082 C26.86400032043457,-10.494999885559082 24.923999786376953,-10.494999885559082 24.923999786376953,-10.494999885559082 C24.354000091552734,-10.494999885559082 23.884000778198242,-10.954999923706055 23.884000778198242,-11.53499984741211 C23.884000778198242,-12.104999542236328 24.354000091552734,-12.574999809265137 24.923999786376953,-12.574999809265137 C24.923999786376953,-12.574999809265137 26.86400032043457,-12.574999809265137 26.86400032043457,-12.574999809265137 C27.43400001525879,-12.574999809265137 27.90399932861328,-12.104999542236328 27.90399932861328,-11.53499984741211 C27.90399932861328,-10.954999923706055 27.43400001525879,-10.494999885559082 26.86400032043457,-10.494999885559082 M19.72,-10.5 C19.72,-10.5 15.99,-10.5 15.99,-10.5 C15.43,-10.5 14.95,-10.95 14.95,-11.53 C14.95,-12.11 15.43,-12.58 15.99,-12.58 C15.99,-12.58 19.72,-12.58 19.72,-12.58 C20.3,-12.58 20.75,-12.11 20.75,-11.53 C20.75,-10.95 20.3,-10.5 19.72,-10.5 M10.79,-10.5 C10.79,-10.5 7.07,-10.5 7.07,-10.5 C6.5,-10.5 6.03,-10.95 6.03,-11.53 C6.03,-12.11 6.5,-12.58 7.07,-12.58 C7.07,-12.58 10.79,-12.58 10.79,-12.58 C11.37,-12.58 11.83,-12.11 11.83,-11.53 C11.83,-10.95 11.37,-10.5 10.79,-10.5 M1.86,-10.5 C1.86,-10.5 -1.86,-10.5 -1.86,-10.5 C-2.43,-10.5 -2.9,-10.95 -2.9,-11.53 C-2.9,-12.11 -2.43,-12.58 -1.86,-12.58 C-1.86,-12.58 1.86,-12.58 1.86,-12.58 C2.44,-12.58 2.9,-12.11 2.9,-11.53 C2.9,-10.95 2.44,-10.5 1.86,-10.5 M-7.07,-10.5 C-7.07,-10.5 -10.79,-10.5 -10.79,-10.5 C-11.36,-10.5 -11.83,-10.95 -11.83,-11.53 C-11.83,-12.11 -11.36,-12.58 -10.79,-12.58 C-10.79,-12.58 -7.07,-12.58 -7.07,-12.58 C-6.49,-12.58 -6.03,-12.11 -6.03,-11.53 C-6.03,-10.95 -6.49,-10.5 -7.07,-10.5 M-16,-10.5 C-16,-10.5 -19.72,-10.5 -19.72,-10.5 C-20.29,-10.5 -20.76,-10.95 -20.76,-11.53 C-20.76,-12.11 -20.29,-12.58 -19.72,-12.58 C-19.72,-12.58 -16,-12.58 -16,-12.58 C-15.42,-12.58 -14.96,-12.11 -14.96,-11.53 C-14.96,-10.95 -15.42,-10.5 -16,-10.5 M-26.86199951171875,-8.555000305175781 C-27.43199920654297,-8.555000305175781 -27.902000427246094,-9.024999618530273 -27.902000427246094,-9.595000267028809 C-27.902000427246094,-9.595000267028809 -27.902000427246094,-11.53499984741211 -27.902000427246094,-11.53499984741211 C-27.902000427246094,-12.104999542236328 -27.43199920654297,-12.574999809265137 -26.86199951171875,-12.574999809265137 C-26.86199951171875,-12.574999809265137 -25.07200050354004,-12.574999809265137 -25.07200050354004,-12.574999809265137 C-24.50200080871582,-12.574999809265137 -24.031999588012695,-12.104999542236328 -24.031999588012695,-11.53499984741211 C-24.031999588012695,-10.954999923706055 -24.50200080871582,-10.494999885559082 -25.07200050354004,-10.494999885559082 C-25.07200050354004,-10.494999885559082 -25.82200050354004,-10.494999885559082 -25.82200050354004,-10.494999885559082 C-25.82200050354004,-10.494999885559082 -25.82200050354004,-9.595000267028809 -25.82200050354004,-9.595000267028809 C-25.82200050354004,-9.024999618530273 -26.281999588012695,-8.555000305175781 -26.86199951171875,-8.555000305175781 M-26.86,6.33 C-27.43,6.33 -27.9,5.86 -27.9,5.29 C-27.9,5.29 -27.9,2.16 -27.9,2.16 C-27.9,1.59 -27.43,1.12 -26.86,1.12 C-26.28,1.12 -25.82,1.59 -25.82,2.16 C-25.82,2.16 -25.82,5.29 -25.82,5.29 C-25.82,5.86 -26.28,6.33 -26.86,6.33 M-26.86,-1.12 C-27.43,-1.12 -27.9,-1.59 -27.9,-2.15 C-27.9,-2.15 -27.9,-5.28 -27.9,-5.28 C-27.9,-5.86 -27.43,-6.32 -26.86,-6.32 C-26.28,-6.32 -25.82,-5.86 -25.82,-5.28 C-25.82,-5.28 -25.82,-2.15 -25.82,-2.15 C-25.82,-1.59 -26.28,-1.12 -26.86,-1.12 M-26.86199951171875,12.576000213623047 C-27.43199920654297,12.576000213623047 -27.902000427246094,12.105999946594238 -27.902000427246094,11.53600025177002 C-27.902000427246094,11.53600025177002 -27.902000427246094,9.746000289916992 -27.902000427246094,9.746000289916992 C-27.902000427246094,9.175999641418457 -27.43199920654297,8.706000328063965 -26.86199951171875,8.706000328063965 C-26.281999588012695,8.706000328063965 -25.82200050354004,9.175999641418457 -25.82200050354004,9.746000289916992 C-25.82200050354004,9.746000289916992 -25.82200050354004,11.53600025177002 -25.82200050354004,11.53600025177002 C-25.82200050354004,12.105999946594238 -26.281999588012695,12.576000213623047 -26.86199951171875,12.576000213623047">
                </path>
                <g opacity="1" transform="matrix(1,0,0,1,0,-11.532999992370605)"></g>
                <g opacity="1" transform="matrix(1,0,0,1,-26.860000610351562,0)"></g>
            </g>
        </g>
        <g transform="matrix(1,0,0,1,630.0469970703125,522.3939819335938)" opacity="1" style="display: none;">
            <g opacity="1" transform="matrix(3,0,0,3,0,0)">
                <path fill="rgb(30,36,58)" fill-opacity="1"
                    d=" M14.22599983215332,22.86199951171875 C14.076000213623047,22.86199951171875 13.916000366210938,22.82200050354004 13.776000022888184,22.75200080871582 C13.776000022888184,22.75200080871582 -0.004000000189989805,15.501999855041504 -0.004000000189989805,15.501999855041504 C-0.004000000189989805,15.501999855041504 -13.77400016784668,22.75200080871582 -13.77400016784668,22.75200080871582 C-14.104000091552734,22.922000885009766 -14.494000434875488,22.892000198364258 -14.793999671936035,22.672000885009766 C-15.093999862670898,22.461999893188477 -15.244000434875488,22.091999053955078 -15.173999786376953,21.73200035095215 C-15.173999786376953,21.73200035095215 -12.543999671936035,6.392000198364258 -12.543999671936035,6.392000198364258 C-12.543999671936035,6.392000198364258 -23.694000244140625,-4.478000164031982 -23.694000244140625,-4.478000164031982 C-23.95400047302246,-4.728000164031982 -24.054000854492188,-5.118000030517578 -23.93400001525879,-5.4679999351501465 C-23.823999404907227,-5.817999839782715 -23.52400016784668,-6.067999839782715 -23.15399932861328,-6.127999782562256 C-23.15399932861328,-6.127999782562256 -7.754000186920166,-8.357999801635742 -7.754000186920166,-8.357999801635742 C-7.754000186920166,-8.357999801635742 -0.8640000224113464,-22.31800079345703 -0.8640000224113464,-22.31800079345703 C-0.7039999961853027,-22.648000717163086 -0.36399999260902405,-22.857999801635742 -0.004000000189989805,-22.857999801635742 C0.3659999966621399,-22.857999801635742 0.7059999704360962,-22.648000717163086 0.8659999966621399,-22.31800079345703 C0.8659999966621399,-22.31800079345703 7.75600004196167,-8.357999801635742 7.75600004196167,-8.357999801635742 C7.75600004196167,-8.357999801635742 23.1560001373291,-6.127999782562256 23.1560001373291,-6.127999782562256 C23.516000747680664,-6.067999839782715 23.826000213623047,-5.817999839782715 23.93600082397461,-5.4679999351501465 C24.055999755859375,-5.118000030517578 23.95599937438965,-4.728000164031982 23.695999145507812,-4.478000164031982 C23.695999145507812,-4.478000164031982 12.545999526977539,6.392000198364258 12.545999526977539,6.392000198364258 C12.545999526977539,6.392000198364258 15.175999641418457,21.73200035095215 15.175999641418457,21.73200035095215 C15.246000289916992,22.091999053955078 15.095999717712402,22.461999893188477 14.795999526977539,22.672000885009766 C14.62600040435791,22.79199981689453 14.425999641418457,22.86199951171875 14.22599983215332,22.86199951171875 M0.0020000000949949026,13.444000244140625 C0.15199999511241913,13.444000244140625 0.31200000643730164,13.484000205993652 0.4519999921321869,13.553999900817871 C0.4519999921321869,13.553999900817871 12.942000389099121,20.124000549316406 12.942000389099121,20.124000549316406 C12.942000389099121,20.124000549316406 10.552000045776367,6.214000225067139 10.552000045776367,6.214000225067139 C10.501999855041504,5.9039998054504395 10.60200023651123,5.584000110626221 10.831999778747559,5.354000091552734 C10.831999778747559,5.354000091552734 20.941999435424805,-4.495999813079834 20.941999435424805,-4.495999813079834 C20.941999435424805,-4.495999813079834 6.9720001220703125,-6.526000022888184 6.9720001220703125,-6.526000022888184 C6.6620001792907715,-6.565999984741211 6.381999969482422,-6.765999794006348 6.242000102996826,-7.056000232696533 C6.242000102996826,-7.056000232696533 0.0020000000949949026,-19.70599937438965 0.0020000000949949026,-19.70599937438965 C0.0020000000949949026,-19.70599937438965 -6.248000144958496,-7.056000232696533 -6.248000144958496,-7.056000232696533 C-6.388000011444092,-6.765999794006348 -6.6579999923706055,-6.565999984741211 -6.978000164031982,-6.526000022888184 C-6.978000164031982,-6.526000022888184 -20.937999725341797,-4.495999813079834 -20.937999725341797,-4.495999813079834 C-20.937999725341797,-4.495999813079834 -10.82800006866455,5.354000091552734 -10.82800006866455,5.354000091552734 C-10.607999801635742,5.584000110626221 -10.498000144958496,5.9039998054504395 -10.557999610900879,6.214000225067139 C-10.557999610900879,6.214000225067139 -12.937999725341797,20.124000549316406 -12.937999725341797,20.124000549316406 C-12.937999725341797,20.124000549316406 -0.4480000138282776,13.553999900817871 -0.4480000138282776,13.553999900817871 C-0.30799999833106995,13.484000205993652 -0.15800000727176666,13.444000244140625 0.0020000000949949026,13.444000244140625">
                </path>
            </g>
        </g>
        <g transform="matrix(1,0,0,1,457.22900390625,467.3699951171875)" opacity="0.2" style="display: none;">
            <g opacity="1" transform="matrix(3,0,0,3,0,0)">
                <path fill="rgb(30,36,58)" fill-opacity="1"
                    d=" M27.756999969482422,14.357000350952148 C27.756999969482422,14.357000350952148 25.816999435424805,14.357000350952148 25.816999435424805,14.357000350952148 C25.246999740600586,14.357000350952148 24.777000427246094,13.897000312805176 24.777000427246094,13.317000389099121 C24.777000427246094,12.746999740600586 25.246999740600586,12.277000427246094 25.816999435424805,12.277000427246094 C25.816999435424805,12.277000427246094 27.756999969482422,12.277000427246094 27.756999969482422,12.277000427246094 C28.32699966430664,12.277000427246094 28.797000885009766,12.746999740600586 28.797000885009766,13.317000389099121 C28.797000885009766,13.897000312805176 28.32699966430664,14.357000350952148 27.756999969482422,14.357000350952148 M20.31,14.36 C20.31,14.36 16.44,14.36 16.44,14.36 C15.87,14.36 15.4,13.9 15.4,13.32 C15.4,12.75 15.87,12.28 16.44,12.28 C16.44,12.28 20.31,12.28 20.31,12.28 C20.89,12.28 21.35,12.75 21.35,13.32 C21.35,13.9 20.89,14.36 20.31,14.36 M11.09,14.36 C11.09,14.36 7.22,14.36 7.22,14.36 C6.65,14.36 6.18,13.9 6.18,13.32 C6.18,12.75 6.65,12.28 7.22,12.28 C7.22,12.28 11.09,12.28 11.09,12.28 C11.67,12.28 12.13,12.75 12.13,13.32 C12.13,13.9 11.67,14.36 11.09,14.36 M1.86,14.36 C1.86,14.36 -2.01,14.36 -2.01,14.36 C-2.58,14.36 -3.05,13.9 -3.05,13.32 C-3.05,12.75 -2.58,12.28 -2.01,12.28 C-2.01,12.28 1.86,12.28 1.86,12.28 C2.44,12.28 2.9,12.75 2.9,13.32 C2.9,13.9 2.44,14.36 1.86,14.36 M-7.37,14.36 C-7.37,14.36 -11.24,14.36 -11.24,14.36 C-11.81,14.36 -12.28,13.9 -12.28,13.32 C-12.28,12.75 -11.81,12.28 -11.24,12.28 C-11.24,12.28 -7.37,12.28 -7.37,12.28 C-6.79,12.28 -6.33,12.75 -6.33,13.32 C-6.33,13.9 -6.79,14.36 -7.37,14.36 M-16.59,14.36 C-16.59,14.36 -20.46,14.36 -20.46,14.36 C-21.03,14.36 -21.5,13.9 -21.5,13.32 C-21.5,12.75 -21.03,12.28 -20.46,12.28 C-20.46,12.28 -16.59,12.28 -16.59,12.28 C-16.01,12.28 -15.55,12.75 -15.55,13.32 C-15.55,13.9 -16.01,14.36 -16.59,14.36 M-25.96500015258789,14.361000061035156 C-25.96500015258789,14.361000061035156 -27.7549991607666,14.361000061035156 -27.7549991607666,14.361000061035156 C-28.325000762939453,14.361000061035156 -28.795000076293945,13.890999794006348 -28.795000076293945,13.321000099182129 C-28.795000076293945,13.321000099182129 -28.795000076293945,11.531000137329102 -28.795000076293945,11.531000137329102 C-28.795000076293945,10.961000442504883 -28.325000762939453,10.491000175476074 -27.7549991607666,10.491000175476074 C-27.174999237060547,10.491000175476074 -26.71500015258789,10.961000442504883 -26.71500015258789,11.531000137329102 C-26.71500015258789,11.531000137329102 -26.71500015258789,12.281000137329102 -26.71500015258789,12.281000137329102 C-26.71500015258789,12.281000137329102 -25.96500015258789,12.281000137329102 -25.96500015258789,12.281000137329102 C-25.395000457763672,12.281000137329102 -24.924999237060547,12.741000175476074 -24.924999237060547,13.321000099182129 C-24.924999237060547,13.890999794006348 -25.395000457763672,14.361000061035156 -25.96500015258789,14.361000061035156 M-27.76,7.36 C-28.33,7.36 -28.8,6.9 -28.8,6.32 C-28.8,6.32 -28.8,2.6 -28.8,2.6 C-28.8,2.03 -28.33,1.56 -27.76,1.56 C-27.18,1.56 -26.72,2.03 -26.72,2.6 C-26.72,2.6 -26.72,6.32 -26.72,6.32 C-26.72,6.9 -27.18,7.36 -27.76,7.36 M-27.76,-1.57 C-28.33,-1.57 -28.8,-2.03 -28.8,-2.61 C-28.8,-2.61 -28.8,-6.33 -28.8,-6.33 C-28.8,-6.9 -28.33,-7.37 -27.76,-7.37 C-27.18,-7.37 -26.72,-6.9 -26.72,-6.33 C-26.72,-6.33 -26.72,-2.61 -26.72,-2.61 C-26.72,-2.03 -27.18,-1.57 -27.76,-1.57 M-27.7549991607666,-10.340999603271484 C-28.325000762939453,-10.340999603271484 -28.795000076293945,-10.810999870300293 -28.795000076293945,-11.380999565124512 C-28.795000076293945,-11.380999565124512 -28.795000076293945,-13.321000099182129 -28.795000076293945,-13.321000099182129 C-28.795000076293945,-13.890999794006348 -28.325000762939453,-14.361000061035156 -27.7549991607666,-14.361000061035156 C-27.174999237060547,-14.361000061035156 -26.71500015258789,-13.890999794006348 -26.71500015258789,-13.321000099182129 C-26.71500015258789,-13.321000099182129 -26.71500015258789,-11.380999565124512 -26.71500015258789,-11.380999565124512 C-26.71500015258789,-10.810999870300293 -27.174999237060547,-10.340999603271484 -27.7549991607666,-10.340999603271484">
                </path>
                <g opacity="1" transform="matrix(1,0,0,1,-0.07400000095367432,13.319000244140625)"></g>
                <g opacity="1" transform="matrix(1,0,0,1,-27.753000259399414,0)"></g>
            </g>
        </g>
    </g>
</svg>