<svg xmlns="http://www.w3.org/2000/svg" xmlns:xlink="http://www.w3.org/1999/xlink" viewBox="0 0 705 600" width="705"
    height="600" preserveAspectRatio="xMidYMid meet"
    style="width: 100%; height: 100%; transform: translate3d(0px, 0px, 0px); content-visibility: visible;">
    <defs>
        <clipPath id="__lottie_element_5150">
            <rect width="705" height="600" x="0" y="0"></rect>
        </clipPath>
    </defs>
    <g clip-path="url(#__lottie_element_5150)">
        <g transform="matrix(0.9463067054748535,0,0,0.9463067054748535,314.8070068359375,419.0260009765625)" opacity="1"
            style="display: block;">
            <g opacity="1" transform="matrix(3,0,0,3,0,0)">
                <path fill="rgb(30,36,58)" fill-opacity="1"
                    d=" M44.297000885009766,9.109999656677246 C43.71699905395508,9.109999656677246 43.24700164794922,8.640000343322754 43.24700164794922,8.0600004196167 C43.24700164794922,8.0600004196167 43.24700164794922,-8.210000038146973 43.24700164794922,-8.210000038146973 C43.24700164794922,-8.789999961853027 43.71699905395508,-9.260000228881836 44.297000885009766,-9.260000228881836 C44.87699890136719,-9.260000228881836 45.33700180053711,-8.789999961853027 45.33700180053711,-8.210000038146973 C45.33700180053711,-8.210000038146973 45.33700180053711,8.0600004196167 45.33700180053711,8.0600004196167 C45.33700180053711,8.640000343322754 44.87699890136719,9.109999656677246 44.297000885009766,9.109999656677246 M33.224998474121094,9.11299991607666 C32.64500045776367,9.11299991607666 32.17499923706055,8.642999649047852 32.17499923706055,8.062999725341797 C32.17499923706055,8.062999725341797 32.17499923706055,-1.937000036239624 32.17499923706055,-1.937000036239624 C32.17499923706055,-2.5169999599456787 32.64500045776367,-2.986999988555908 33.224998474121094,-2.986999988555908 C33.80500030517578,-2.986999988555908 34.26499938964844,-2.5169999599456787 34.26499938964844,-1.937000036239624 C34.26499938964844,-1.937000036239624 34.26499938964844,8.062999725341797 34.26499938964844,8.062999725341797 C34.26499938964844,8.642999649047852 33.80500030517578,9.11299991607666 33.224998474121094,9.11299991607666 M22.152999877929688,9.114999771118164 C21.572999954223633,9.114999771118164 21.10300064086914,8.645000457763672 21.10300064086914,8.0649995803833 C21.10300064086914,8.0649995803833 21.10300064086914,0.004999999888241291 21.10300064086914,0.004999999888241291 C21.10300064086914,-0.574999988079071 21.572999954223633,-1.0449999570846558 22.152999877929688,-1.0449999570846558 C22.732999801635742,-1.0449999570846558 23.19300079345703,-0.574999988079071 23.19300079345703,0.004999999888241291 C23.19300079345703,0.004999999888241291 23.19300079345703,8.0649995803833 23.19300079345703,8.0649995803833 C23.19300079345703,8.645000457763672 22.732999801635742,9.114999771118164 22.152999877929688,9.114999771118164 M-33.20600128173828,9.105999946594238 C-33.7859992980957,9.105999946594238 -34.25600051879883,8.645999908447266 -34.25600051879883,8.065999984741211 C-34.25600051879883,8.065999984741211 -34.25600051879883,-7.164000034332275 -34.25600051879883,-7.164000034332275 C-34.25600051879883,-7.74399995803833 -33.7859992980957,-8.21399974822998 -33.20600128173828,-8.21399974822998 C-32.625999450683594,-8.21399974822998 -32.16600036621094,-7.74399995803833 -32.16600036621094,-7.164000034332275 C-32.16600036621094,-7.164000034332275 -32.16600036621094,8.065999984741211 -32.16600036621094,8.065999984741211 C-32.16600036621094,8.645999908447266 -32.625999450683594,9.105999946594238 -33.20600128173828,9.105999946594238 M-44.27799987792969,9.11400032043457 C-44.858001708984375,9.11400032043457 -45.327999114990234,8.644000053405762 -45.327999114990234,8.064000129699707 C-45.327999114990234,8.064000129699707 -45.327999114990234,-4.47599983215332 -45.327999114990234,-4.47599983215332 C-45.327999114990234,-5.056000232696533 -44.858001708984375,-5.526000022888184 -44.27799987792969,-5.526000022888184 C-43.698001861572266,-5.526000022888184 -43.237998962402344,-5.056000232696533 -43.237998962402344,-4.47599983215332 C-43.237998962402344,-4.47599983215332 -43.237998962402344,8.064000129699707 -43.237998962402344,8.064000129699707 C-43.237998962402344,8.644000053405762 -43.698001861572266,9.11400032043457 -44.27799987792969,9.11400032043457 M-14.960000038146973,-23.599000930786133 C-14.960000038146973,-23.599000930786133 -55.349998474121094,-23.599000930786133 -55.349998474121094,-23.599000930786133 C-55.93000030517578,-23.599000930786133 -56.400001525878906,-24.069000244140625 -56.400001525878906,-24.638999938964844 C-56.400001525878906,-25.2189998626709 -55.93000030517578,-25.68899917602539 -55.349998474121094,-25.68899917602539 C-55.349998474121094,-25.68899917602539 -14.960000038146973,-25.68899917602539 -14.960000038146973,-25.68899917602539 C-14.380000114440918,-25.68899917602539 -13.90999984741211,-25.2189998626709 -13.90999984741211,-24.638999938964844 C-13.90999984741211,-24.069000244140625 -14.380000114440918,-23.599000930786133 -14.960000038146973,-23.599000930786133 M-14.960000038146973,-32.26100158691406 C-14.960000038146973,-32.26100158691406 -55.349998474121094,-32.26100158691406 -55.349998474121094,-32.26100158691406 C-55.93000030517578,-32.26100158691406 -56.400001525878906,-32.73099899291992 -56.400001525878906,-33.30099868774414 C-56.400001525878906,-33.88100051879883 -55.93000030517578,-34.35100173950195 -55.349998474121094,-34.35100173950195 C-55.349998474121094,-34.35100173950195 -14.960000038146973,-34.35100173950195 -14.960000038146973,-34.35100173950195 C-14.380000114440918,-34.35100173950195 -13.90999984741211,-33.88100051879883 -13.90999984741211,-33.30099868774414 C-13.90999984741211,-32.73099899291992 -14.380000114440918,-32.26100158691406 -14.960000038146973,-32.26100158691406 M-14.960000038146973,-41.073001861572266 C-14.960000038146973,-41.073001861572266 -55.349998474121094,-41.073001861572266 -55.349998474121094,-41.073001861572266 C-55.93000030517578,-41.073001861572266 -56.400001525878906,-41.542999267578125 -56.400001525878906,-42.112998962402344 C-56.400001525878906,-42.69300079345703 -55.93000030517578,-43.16299819946289 -55.349998474121094,-43.16299819946289 C-55.349998474121094,-43.16299819946289 -14.960000038146973,-43.16299819946289 -14.960000038146973,-43.16299819946289 C-14.380000114440918,-43.16299819946289 -13.90999984741211,-42.69300079345703 -13.90999984741211,-42.112998962402344 C-13.90999984741211,-41.542999267578125 -14.380000114440918,-41.073001861572266 -14.960000038146973,-41.073001861572266 M11.081000328063965,9.114999771118164 C10.50100040435791,9.114999771118164 10.031000137329102,8.645000457763672 10.031000137329102,8.0649995803833 C10.031000137329102,8.0649995803833 10.031000137329102,-4.625 10.031000137329102,-4.625 C10.031000137329102,-5.204999923706055 10.50100040435791,-5.675000190734863 11.081000328063965,-5.675000190734863 C11.66100025177002,-5.675000190734863 12.121000289916992,-5.204999923706055 12.121000289916992,-4.625 C12.121000289916992,-4.625 12.121000289916992,8.0649995803833 12.121000289916992,8.0649995803833 C12.121000289916992,8.645000457763672 11.66100025177002,9.114999771118164 11.081000328063965,9.114999771118164 M0.008999999612569809,9.11299991607666 C-0.5709999799728394,9.11299991607666 -1.0410000085830688,8.642999649047852 -1.0410000085830688,8.062999725341797 C-1.0410000085830688,8.062999725341797 -1.0410000085830688,-1.937000036239624 -1.0410000085830688,-1.937000036239624 C-1.0410000085830688,-2.5169999599456787 -0.5709999799728394,-2.986999988555908 0.008999999612569809,-2.986999988555908 C0.5889999866485596,-2.986999988555908 1.0490000247955322,-2.5169999599456787 1.0490000247955322,-1.937000036239624 C1.0490000247955322,-1.937000036239624 1.0490000247955322,8.062999725341797 1.0490000247955322,8.062999725341797 C1.0490000247955322,8.642999649047852 0.5889999866485596,9.11299991607666 0.008999999612569809,9.11299991607666 M-11.062999725341797,8.807000160217285 C-11.642999649047852,8.807000160217285 -12.11299991607666,8.347000122070312 -12.11299991607666,7.767000198364258 C-12.11299991607666,7.767000198364258 -12.11299991607666,4.0370001792907715 -12.11299991607666,4.0370001792907715 C-12.11299991607666,3.4570000171661377 -11.642999649047852,2.986999988555908 -11.062999725341797,2.986999988555908 C-10.482999801635742,2.986999988555908 -10.02299976348877,3.4570000171661377 -10.02299976348877,4.0370001792907715 C-10.02299976348877,4.0370001792907715 -10.02299976348877,7.767000198364258 -10.02299976348877,7.767000198364258 C-10.02299976348877,8.347000122070312 -10.482999801635742,8.807000160217285 -11.062999725341797,8.807000160217285 M-22.134000778198242,9.11400032043457 C-22.714000701904297,9.11400032043457 -23.18400001525879,8.644000053405762 -23.18400001525879,8.064000129699707 C-23.18400001525879,8.064000129699707 -23.18400001525879,-9.105999946594238 -23.18400001525879,-9.105999946594238 C-23.18400001525879,-9.685999870300293 -22.714000701904297,-10.156000137329102 -22.134000778198242,-10.156000137329102 C-21.554000854492188,-10.156000137329102 -21.0939998626709,-9.685999870300293 -21.0939998626709,-9.105999946594238 C-21.0939998626709,-9.105999946594238 -21.0939998626709,8.064000129699707 -21.0939998626709,8.064000129699707 C-21.0939998626709,8.644000053405762 -21.554000854492188,9.11400032043457 -22.134000778198242,9.11400032043457 M55.36,9.08 C55.36,9.08 -55.36,9.08 -55.36,9.08 C-55.94,9.08 -56.41,8.61 -56.41,8.03 C-56.41,8.03 -56.41,-13.92 -56.41,-13.92 C-56.41,-14.5 -55.94,-14.97 -55.36,-14.97 C-55.36,-14.97 55.36,-14.97 55.36,-14.97 C55.93,-14.97 56.4,-14.5 56.4,-13.92 C56.4,-13.92 56.4,8.03 56.4,8.03 C56.4,8.61 55.93,9.08 55.36,9.08 C55.36,9.08 55.36,9.08 55.36,9.08z M-54.31,6.98 C-54.31,6.98 54.31,6.98 54.31,6.98 C54.31,6.98 54.31,-12.88 54.31,-12.88 C54.31,-12.88 -54.31,-12.88 -54.31,-12.88 C-54.31,-12.88 -54.31,6.98 -54.31,6.98z M59.51,32.86 C59.51,32.86 -59.55,32.86 -59.55,32.86 C-62.94,32.86 -65.69,30.11 -65.69,26.73 C-65.69,26.73 -65.69,-51.97 -65.69,-51.97 C-65.69,-55.35 -62.94,-58.1 -59.55,-58.1 C-59.55,-58.1 59.51,-58.1 59.51,-58.1 C62.89,-58.1 65.65,-55.35 65.65,-51.97 C65.65,-51.97 65.65,26.73 65.65,26.73 C65.65,30.11 62.89,32.86 59.51,32.86 C59.51,32.86 59.51,32.86 59.51,32.86z M-59.56,-56.01 C-61.78,-56.01 -63.6,-54.2 -63.6,-51.97 C-63.6,-51.97 -63.6,26.73 -63.6,26.73 C-63.6,28.96 -61.78,30.77 -59.56,30.77 C-59.56,30.77 59.51,30.77 59.51,30.77 C61.74,30.77 63.56,28.96 63.56,26.73 C63.56,26.73 63.56,-51.97 63.56,-51.97 C63.56,-54.2 61.74,-56.01 59.51,-56.01 C59.51,-56.01 -59.56,-56.01 -59.56,-56.01z M-0.06,28.85 C-1.74,28.85 -3.11,27.49 -3.11,25.81 C-3.11,24.13 -1.74,22.76 -0.06,22.76 C1.63,22.76 2.99,24.13 2.99,25.81 C2.99,27.49 1.63,28.85 -0.06,28.85 M-0.06,24.85 C-0.59,24.85 -1.02,25.28 -1.02,25.81 C-1.02,26.33 -0.59,26.76 -0.06,26.76 C0.47,26.76 0.9,26.33 0.9,25.81 C0.9,25.28 0.47,24.85 -0.06,24.85 M28.131000518798828,58.097999572753906 C28.131000518798828,58.097999572753906 -27.9689998626709,58.097999572753906 -27.9689998626709,58.097999572753906 C-28.548999786376953,58.097999572753906 -29.018999099731445,57.62799835205078 -29.018999099731445,57.05799865722656 C-29.018999099731445,56.47800064086914 -28.548999786376953,56.007999420166016 -27.9689998626709,56.007999420166016 C-27.9689998626709,56.007999420166016 28.131000518798828,56.007999420166016 28.131000518798828,56.007999420166016 C28.711000442504883,56.007999420166016 29.180999755859375,56.47800064086914 29.180999755859375,57.05799865722656 C29.180999755859375,57.62799835205078 28.711000442504883,58.097999572753906 28.131000518798828,58.097999572753906 M14.970999717712402,57.505001068115234 C14.390999794006348,57.505001068115234 13.920999526977539,57.03499984741211 13.920999526977539,56.45500183105469 C13.920999526977539,56.45500183105469 13.920999526977539,32.26499938964844 13.920999526977539,32.26499938964844 C13.920999526977539,31.684999465942383 14.390999794006348,31.21500015258789 14.970999717712402,31.21500015258789 C15.550999641418457,31.21500015258789 16.01099967956543,31.684999465942383 16.01099967956543,32.26499938964844 C16.01099967956543,32.26499938964844 16.01099967956543,56.45500183105469 16.01099967956543,56.45500183105469 C16.01099967956543,57.03499984741211 15.550999641418457,57.505001068115234 14.970999717712402,57.505001068115234 M-14.95300006866455,57.505001068115234 C-15.532999992370605,57.505001068115234 -16.003000259399414,57.03499984741211 -16.003000259399414,56.45500183105469 C-16.003000259399414,56.45500183105469 -16.003000259399414,32.26499938964844 -16.003000259399414,32.26499938964844 C-16.003000259399414,31.684999465942383 -15.532999992370605,31.21500015258789 -14.95300006866455,31.21500015258789 C-14.373000144958496,31.21500015258789 -13.913000106811523,31.684999465942383 -13.913000106811523,32.26499938964844 C-13.913000106811523,32.26499938964844 -13.913000106811523,56.45500183105469 -13.913000106811523,56.45500183105469 C-13.913000106811523,57.03499984741211 -14.373000144958496,57.505001068115234 -14.95300006866455,57.505001068115234 M64.64399719238281,20.909000396728516 C64.64399719238281,20.909000396728516 -64.6259994506836,20.909000396728516 -64.6259994506836,20.909000396728516 C-65.20600128173828,20.909000396728516 -65.6760025024414,20.43899917602539 -65.6760025024414,19.868999481201172 C-65.6760025024414,19.288999557495117 -65.20600128173828,18.819000244140625 -64.6259994506836,18.819000244140625 C-64.6259994506836,18.819000244140625 64.64399719238281,18.819000244140625 64.64399719238281,18.819000244140625 C65.2239990234375,18.819000244140625 65.69400024414062,19.288999557495117 65.69400024414062,19.868999481201172 C65.69400024414062,20.43899917602539 65.2239990234375,20.909000396728516 64.64399719238281,20.909000396728516">
                </path>
                <g opacity="1" transform="matrix(1,0,0,1,0,0)">
                    <g opacity="1" transform="matrix(1,0,0,1,0,-2.944999933242798)"></g>
                    <g opacity="1" transform="matrix(1,0,0,1,-0.020999999716877937,-12.619999885559082)"></g>
                    <g opacity="1" transform="matrix(1,0,0,1,-0.05999999865889549,25.804000854492188)"></g>
                </g>
            </g>
        </g>
        <g transform="matrix(1,0,0,1,71.99500274658203,305.4429931640625)" opacity="0.012838475017735862"
            style="display: block;">
            <g opacity="1" transform="matrix(3,0,0,3,0,0)">
                <path fill="rgb(30,36,58)" fill-opacity="1"
                    d=" M8.526000022888184,25.016000747680664 C8.526000022888184,25.016000747680664 6.585999965667725,25.016000747680664 6.585999965667725,25.016000747680664 C6.00600004196167,25.016000747680664 5.535999774932861,24.54599952697754 5.535999774932861,23.97599983215332 C5.535999774932861,23.395999908447266 6.00600004196167,22.926000595092773 6.585999965667725,22.926000595092773 C6.585999965667725,22.926000595092773 8.526000022888184,22.926000595092773 8.526000022888184,22.926000595092773 C9.105999946594238,22.926000595092773 9.576000213623047,23.395999908447266 9.576000213623047,23.97599983215332 C9.576000213623047,24.54599952697754 9.105999946594238,25.016000747680664 8.526000022888184,25.016000747680664 M1.3459999561309814,25.016000747680664 C1.3459999561309814,25.016000747680664 -1.49399995803833,25.016000747680664 -1.49399995803833,25.016000747680664 C-2.0739998817443848,25.016000747680664 -2.5439999103546143,24.54599952697754 -2.5439999103546143,23.97599983215332 C-2.5439999103546143,23.395999908447266 -2.0739998817443848,22.926000595092773 -1.49399995803833,22.926000595092773 C-1.49399995803833,22.926000595092773 1.3459999561309814,22.926000595092773 1.3459999561309814,22.926000595092773 C1.9259999990463257,22.926000595092773 2.3959999084472656,23.395999908447266 2.3959999084472656,23.97599983215332 C2.3959999084472656,24.54599952697754 1.9259999990463257,25.016000747680664 1.3459999561309814,25.016000747680664 M-6.736000061035156,25.013999938964844 C-6.736000061035156,25.013999938964844 -8.526000022888184,25.013999938964844 -8.526000022888184,25.013999938964844 C-9.105999946594238,25.013999938964844 -9.576000213623047,24.55299949645996 -9.576000213623047,23.972999572753906 C-9.576000213623047,23.972999572753906 -9.576000213623047,22.18400001525879 -9.576000213623047,22.18400001525879 C-9.576000213623047,21.604000091552734 -9.105999946594238,21.132999420166016 -8.526000022888184,21.132999420166016 C-7.946000099182129,21.132999420166016 -7.486000061035156,21.604000091552734 -7.486000061035156,22.18400001525879 C-7.486000061035156,22.18400001525879 -7.486000061035156,22.923999786376953 -7.486000061035156,22.923999786376953 C-7.486000061035156,22.923999786376953 -6.736000061035156,22.923999786376953 -6.736000061035156,22.923999786376953 C-6.156000137329102,22.923999786376953 -5.685999870300293,23.39299964904785 -5.685999870300293,23.972999572753906 C-5.685999870300293,24.55299949645996 -6.156000137329102,25.013999938964844 -6.736000061035156,25.013999938964844 M-8.52,17.1 C-9.1,17.1 -9.57,16.64 -9.57,16.06 C-9.57,16.06 -9.57,12.63 -9.57,12.63 C-9.57,12.05 -9.1,11.57 -8.52,11.57 C-7.94,11.57 -7.48,12.05 -7.48,12.63 C-7.48,12.63 -7.48,16.06 -7.48,16.06 C-7.48,16.64 -7.94,17.1 -8.52,17.1 M-8.52,7.55 C-9.1,7.55 -9.57,7.08 -9.57,6.5 C-9.57,6.5 -9.57,3.07 -9.57,3.07 C-9.57,2.49 -9.1,2.02 -8.52,2.02 C-7.94,2.02 -7.48,2.49 -7.48,3.07 C-7.48,3.07 -7.48,6.5 -7.48,6.5 C-7.48,7.08 -7.94,7.55 -8.52,7.55 M-8.52,-2.01 C-9.1,-2.01 -9.57,-2.48 -9.57,-3.06 C-9.57,-3.06 -9.57,-6.49 -9.57,-6.49 C-9.57,-7.07 -9.1,-7.54 -8.52,-7.54 C-7.94,-7.54 -7.48,-7.07 -7.48,-6.49 C-7.48,-6.49 -7.48,-3.06 -7.48,-3.06 C-7.48,-2.48 -7.94,-2.01 -8.52,-2.01 M-8.52,-11.57 C-9.1,-11.57 -9.57,-12.04 -9.57,-12.62 C-9.57,-12.62 -9.57,-16.05 -9.57,-16.05 C-9.57,-16.63 -9.1,-17.1 -8.52,-17.1 C-7.94,-17.1 -7.48,-16.63 -7.48,-16.05 C-7.48,-16.05 -7.48,-12.62 -7.48,-12.62 C-7.48,-12.04 -7.94,-11.57 -8.52,-11.57 M-8.526000022888184,-20.98699951171875 C-9.105999946594238,-20.98699951171875 -9.576000213623047,-21.457000732421875 -9.576000213623047,-22.027000427246094 C-9.576000213623047,-22.027000427246094 -9.576000213623047,-23.966999053955078 -9.576000213623047,-23.966999053955078 C-9.576000213623047,-24.547000885009766 -9.105999946594238,-25.017000198364258 -8.526000022888184,-25.017000198364258 C-7.946000099182129,-25.017000198364258 -7.486000061035156,-24.547000885009766 -7.486000061035156,-23.966999053955078 C-7.486000061035156,-23.966999053955078 -7.486000061035156,-22.027000427246094 -7.486000061035156,-22.027000427246094 C-7.486000061035156,-21.457000732421875 -7.946000099182129,-20.98699951171875 -8.526000022888184,-20.98699951171875">
                </path>
                <g opacity="1" transform="matrix(1,0,0,1,-8.527999877929688,0)"></g>
            </g>
        </g>
        <g transform="matrix(1,0,0,1,102.78899383544922,111.60700225830078)" opacity="0.999999083133501"
            style="display: none;">
            <g opacity="1" transform="matrix(3,0,0,3,0,0)">
                <path fill="rgb(30,36,58)" fill-opacity="1"
                    d=" M-30.49799919128418,-12.109999656677246 C-30.63800048828125,-12.109999656677246 -30.777999877929688,-12.130000114440918 -30.917999267578125,-12.1899995803833 C-31.447999954223633,-12.420000076293945 -31.687999725341797,-13.039999961853027 -31.45800018310547,-13.569999694824219 C-29.667999267578125,-17.709999084472656 -27.097999572753906,-21.40999984741211 -23.83799934387207,-24.56999969482422 C-23.42799949645996,-24.969999313354492 -22.757999420166016,-24.959999084472656 -22.357999801635742,-24.540000915527344 C-21.95800018310547,-24.1299991607666 -21.968000411987305,-23.469999313354492 -22.378000259399414,-23.059999465942383 C-25.447999954223633,-20.100000381469727 -27.857999801635742,-16.6299991607666 -29.538000106811523,-12.739999771118164 C-29.70800018310547,-12.34000015258789 -30.097999572753906,-12.109999656677246 -30.49799919128418,-12.109999656677246 M0,7.22 C-3.23,7.22 -5.85,4.6 -5.85,1.38 C-5.85,-1.84 -3.23,-4.46 0,-4.46 C3.23,-4.46 5.85,-1.84 5.85,1.38 C5.85,4.6 3.23,7.22 0,7.22 M0,-2.37 C-2.08,-2.37 -3.76,-0.69 -3.76,1.38 C-3.76,3.46 -2.08,5.13 0,5.13 C2.07,5.13 3.75,3.46 3.75,1.38 C3.75,-0.69 2.07,-2.37 0,-2.37 M-0.003000000026077032,34.198001861572266 C-9.152999877929688,34.198001861572266 -17.753000259399414,30.648000717163086 -24.222999572753906,24.187999725341797 C-30.702999114990234,17.72800064086914 -34.26300048828125,9.137999534606934 -34.26300048828125,-0.0020000000949949026 C-34.26300048828125,-0.5820000171661377 -33.792999267578125,-1.0420000553131104 -33.2130012512207,-1.0420000553131104 C-32.632999420166016,-1.0420000553131104 -32.17300033569336,-0.5820000171661377 -32.17300033569336,-0.0020000000949949026 C-32.17300033569336,17.70800018310547 -17.732999801635742,32.108001708984375 -0.003000000026077032,32.108001708984375 C17.73699951171875,32.108001708984375 32.16699981689453,17.70800018310547 32.16699981689453,-0.0020000000949949026 C32.16699981689453,-17.70199966430664 17.73699951171875,-32.11199951171875 -0.003000000026077032,-32.11199951171875 C-4.942999839782715,-32.11199951171875 -9.682999610900879,-31.02199935913086 -14.093000411987305,-28.871999740600586 C-14.61299991607666,-28.621999740600586 -15.232999801635742,-28.832000732421875 -15.493000030517578,-29.351999282836914 C-15.743000030517578,-29.871999740600586 -15.532999992370605,-30.50200080871582 -15.012999534606934,-30.75200080871582 C-10.312999725341797,-33.04199981689453 -5.263000011444092,-34.20199966430664 -0.003000000026077032,-34.20199966430664 C9.156999588012695,-34.20199966430664 17.756999969482422,-30.642000198364258 24.226999282836914,-24.18199920654297 C30.69700050354004,-17.722000122070312 34.266998291015625,-9.131999969482422 34.266998291015625,-0.0020000000949949026 C34.266998291015625,9.137999534606934 30.69700050354004,17.72800064086914 24.226999282836914,24.187999725341797 C17.756999969482422,30.648000717163086 9.156999588012695,34.198001861572266 -0.003000000026077032,34.198001861572266 M0,12.25 C-6.01,12.25 -10.89,7.37 -10.89,1.38 C-10.89,-4.61 -6.01,-9.49 0,-9.49 C6,-9.49 10.89,-4.61 10.89,1.38 C10.89,7.37 6,12.25 0,12.25 M0,-7.4 C-4.85,-7.4 -8.79,-3.46 -8.79,1.38 C-8.79,6.22 -4.85,10.16 0,10.16 C4.85,10.16 8.8,6.22 8.8,1.38 C8.8,-3.46 4.85,-7.4 0,-7.4 M0,16.11 C-6.51,16.11 -13.32,13.64 -19.68,8.94 C-24.46,5.4 -27.28,1.92 -27.4,1.77 C-27.72,1.37 -27.7,0.8 -27.36,0.42 C-27.24,0.28 -24.22,-3.06 -19.35,-6.45 C-14.82,-9.6 -7.79,-13.35 0,-13.35 C8.29,-13.35 15.3,-9.58 19.72,-6.43 C24.49,-3.04 27.28,0.31 27.4,0.45 C27.72,0.85 27.71,1.41 27.38,1.8 C27.26,1.95 24.24,5.42 19.37,8.94 C14.84,12.22 7.81,16.11 0,16.11 M-25.17,1.16 C-24.12,2.33 -21.74,4.83 -18.39,7.29 C-14.21,10.36 -7.63,14.03 0,14.03 C7.23,14.03 13.83,10.36 18.1,7.28 C21.55,4.8 24.08,2.28 25.18,1.12 C24.14,-0.02 21.78,-2.41 18.46,-4.77 C14.3,-7.72 7.72,-11.25 0,-11.25 C-7.23,-11.25 -13.84,-7.72 -18.11,-4.76 C-21.54,-2.37 -24.06,0.03 -25.17,1.16">
                </path>
                <g opacity="1" transform="matrix(1,0,0,1,0,1.3839999437332153)"></g>
                <g opacity="1" transform="matrix(1,0,0,1,0,0)">
                    <g opacity="1" transform="matrix(1,0,0,1,0,1.378000020980835)"></g>
                    <g opacity="1" transform="matrix(1,0,0,1,0,1.3839999437332153)"></g>
                </g>
            </g>
        </g>
        <g transform="matrix(1,0,0,1,342.656005859375,111.65699768066406)" opacity="0.1999999240144129"
            style="display: none;">
            <g opacity="1" transform="matrix(3,0,0,3,0,0)">
                <path fill="rgb(30,36,58)" fill-opacity="1"
                    d=" M37.551998138427734,1.0449999570846558 C37.551998138427734,1.0449999570846558 35.61199951171875,1.0449999570846558 35.61199951171875,1.0449999570846558 C35.03200149536133,1.0449999570846558 34.5620002746582,0.574999988079071 34.5620002746582,0.004999999888241291 C34.5620002746582,-0.574999988079071 35.03200149536133,-1.0449999570846558 35.61199951171875,-1.0449999570846558 C35.61199951171875,-1.0449999570846558 37.551998138427734,-1.0449999570846558 37.551998138427734,-1.0449999570846558 C38.13199996948242,-1.0449999570846558 38.60200119018555,-0.574999988079071 38.60200119018555,0.004999999888241291 C38.60200119018555,0.574999988079071 38.13199996948242,1.0449999570846558 37.551998138427734,1.0449999570846558 M29.03,1.04 C29.03,1.04 25.14,1.04 25.14,1.04 C24.56,1.04 24.09,0.57 24.09,0 C24.09,-0.57 24.56,-1.04 25.14,-1.04 C25.14,-1.04 29.03,-1.04 29.03,-1.04 C29.61,-1.04 30.07,-0.57 30.07,0 C30.07,0.57 29.61,1.04 29.03,1.04 M18.26,1.04 C18.26,1.04 14.37,1.04 14.37,1.04 C13.79,1.04 13.32,0.57 13.32,0 C13.32,-0.57 13.79,-1.04 14.37,-1.04 C14.37,-1.04 18.26,-1.04 18.26,-1.04 C18.84,-1.04 19.3,-0.57 19.3,0 C19.3,0.57 18.84,1.04 18.26,1.04 M7.48,1.04 C7.48,1.04 3.59,1.04 3.59,1.04 C3.01,1.04 2.54,0.57 2.54,0 C2.54,-0.57 3.01,-1.04 3.59,-1.04 C3.59,-1.04 7.48,-1.04 7.48,-1.04 C8.06,-1.04 8.52,-0.57 8.52,0 C8.52,0.57 8.06,1.04 7.48,1.04 M-3.29,1.04 C-3.29,1.04 -7.18,1.04 -7.18,1.04 C-7.76,1.04 -8.23,0.57 -8.23,0 C-8.23,-0.57 -7.76,-1.04 -7.18,-1.04 C-7.18,-1.04 -3.29,-1.04 -3.29,-1.04 C-2.71,-1.04 -2.25,-0.57 -2.25,0 C-2.25,0.57 -2.71,1.04 -3.29,1.04 M-14.06,1.04 C-14.06,1.04 -17.95,1.04 -17.95,1.04 C-18.53,1.04 -19,0.57 -19,0 C-19,-0.57 -18.53,-1.04 -17.95,-1.04 C-17.95,-1.04 -14.06,-1.04 -14.06,-1.04 C-13.48,-1.04 -13.02,-0.57 -13.02,0 C-13.02,0.57 -13.48,1.04 -14.06,1.04 M-24.83,1.04 C-24.83,1.04 -28.72,1.04 -28.72,1.04 C-29.3,1.04 -29.77,0.57 -29.77,0 C-29.77,-0.57 -29.3,-1.04 -28.72,-1.04 C-28.72,-1.04 -24.83,-1.04 -24.83,-1.04 C-24.25,-1.04 -23.79,-0.57 -23.79,0 C-23.79,0.57 -24.25,1.04 -24.83,1.04 M-35.762001037597656,1.0449999570846558 C-35.762001037597656,1.0449999570846558 -37.551998138427734,1.0449999570846558 -37.551998138427734,1.0449999570846558 C-38.13199996948242,1.0449999570846558 -38.60200119018555,0.574999988079071 -38.60200119018555,0.004999999888241291 C-38.60200119018555,-0.574999988079071 -38.13199996948242,-1.0449999570846558 -37.551998138427734,-1.0449999570846558 C-37.551998138427734,-1.0449999570846558 -35.762001037597656,-1.0449999570846558 -35.762001037597656,-1.0449999570846558 C-35.18199920654297,-1.0449999570846558 -34.71200180053711,-0.574999988079071 -34.71200180053711,0.004999999888241291 C-34.71200180053711,0.574999988079071 -35.18199920654297,1.0449999570846558 -35.762001037597656,1.0449999570846558">
                </path>
                <g opacity="1" transform="matrix(1,0,0,1,0.15000000596046448,0)"></g>
            </g>
        </g>
        <g transform="matrix(1,0,0,1,590.9559936523438,240.1959991455078)" opacity="0.9999999050066437"
            style="display: none;">
            <g opacity="1" transform="matrix(3,0,0,3,0,0)">
                <path fill="rgb(30,36,58)" fill-opacity="1"
                    d=" M8.656000137329102,27.198999404907227 C8.656000137329102,27.198999404907227 7.75600004196167,27.198999404907227 7.75600004196167,27.198999404907227 C7.176000118255615,27.198999404907227 6.705999851226807,26.729000091552734 6.705999851226807,26.159000396728516 C6.705999851226807,25.57900047302246 7.176000118255615,25.108999252319336 7.75600004196167,25.108999252319336 C7.75600004196167,25.108999252319336 8.656000137329102,25.108999252319336 8.656000137329102,25.108999252319336 C9.22599983215332,25.108999252319336 9.696000099182129,25.57900047302246 9.696000099182129,26.159000396728516 C9.696000099182129,26.729000091552734 9.22599983215332,27.198999404907227 8.656000137329102,27.198999404907227 M24.202999114990234,-37.11800003051758 C23.62299919128418,-37.11800003051758 23.152999877929688,-37.5880012512207 23.152999877929688,-38.167999267578125 C23.152999877929688,-50.90800094604492 12.762999534606934,-61.27799987792969 0.003000000026077032,-61.27799987792969 C-0.5770000219345093,-61.27799987792969 -1.0470000505447388,-61.74800109863281 -1.0470000505447388,-62.31800079345703 C-1.0470000505447388,-62.89799880981445 -0.5770000219345093,-63.36800003051758 0.003000000026077032,-63.36800003051758 C13.92300033569336,-63.36800003051758 25.253000259399414,-52.05799865722656 25.253000259399414,-38.167999267578125 C25.253000259399414,-37.5880012512207 24.783000946044922,-37.11800003051758 24.202999114990234,-37.11800003051758 M1.7669999599456787,27.198999404907227 C1.7669999599456787,27.198999404907227 -8.553000450134277,27.198999404907227 -8.553000450134277,27.198999404907227 C-9.133000373840332,27.198999404907227 -9.602999687194824,26.729000091552734 -9.602999687194824,26.159000396728516 C-9.602999687194824,25.57900047302246 -9.133000373840332,25.108999252319336 -8.553000450134277,25.108999252319336 C-8.553000450134277,25.108999252319336 1.7669999599456787,25.108999252319336 1.7669999599456787,25.108999252319336 C2.3469998836517334,25.108999252319336 2.816999912261963,25.57900047302246 2.816999912261963,26.159000396728516 C2.816999912261963,26.729000091552734 2.3469998836517334,27.198999404907227 1.7669999599456787,27.198999404907227 M-0.03099999949336052,75.11100006103516 C-5.361000061035156,75.11100006103516 -9.701000213623047,70.78099822998047 -9.701000213623047,65.46099853515625 C-9.701000213623047,65.46099853515625 -9.701000213623047,21.500999450683594 -9.701000213623047,21.500999450683594 C-9.701000213623047,20.92099952697754 -9.230999946594238,20.451000213623047 -8.651000022888184,20.451000213623047 C-8.071000099182129,20.451000213623047 -7.611000061035156,20.92099952697754 -7.611000061035156,21.500999450683594 C-7.611000061035156,21.500999450683594 -7.611000061035156,65.46099853515625 -7.611000061035156,65.46099853515625 C-7.611000061035156,69.63099670410156 -4.210999965667725,73.02100372314453 -0.03099999949336052,73.02100372314453 C4.14900016784668,73.02100372314453 7.548999786376953,69.63099670410156 7.548999786376953,65.46099853515625 C7.548999786376953,65.46099853515625 7.548999786376953,21.500999450683594 7.548999786376953,21.500999450683594 C7.548999786376953,20.92099952697754 8.019000053405762,20.451000213623047 8.58899974822998,20.451000213623047 C9.168999671936035,20.451000213623047 9.638999938964844,20.92099952697754 9.638999938964844,21.500999450683594 C9.638999938964844,21.500999450683594 9.638999938964844,65.46099853515625 9.638999938964844,65.46099853515625 C9.638999938964844,70.78099822998047 5.298999786376953,75.11100006103516 -0.03099999949336052,75.11100006103516 M13.595999717712402,22.541000366210938 C13.595999717712402,22.541000366210938 6.556000232696533,22.541000366210938 6.556000232696533,22.541000366210938 C5.97599983215332,22.541000366210938 5.50600004196167,22.070999145507812 5.50600004196167,21.500999450683594 C5.50600004196167,20.92099952697754 5.97599983215332,20.451000213623047 6.556000232696533,20.451000213623047 C6.556000232696533,20.451000213623047 13.595999717712402,20.451000213623047 13.595999717712402,20.451000213623047 C13.736000061035156,20.451000213623047 13.845999717712402,20.340999603271484 13.845999717712402,20.201000213623047 C13.845999717712402,20.201000213623047 13.845999717712402,16.320999145507812 13.845999717712402,16.320999145507812 C13.845999717712402,16.180999755859375 13.736000061035156,16.070999145507812 13.595999717712402,16.070999145507812 C13.595999717712402,16.070999145507812 -13.654000282287598,16.070999145507812 -13.654000282287598,16.070999145507812 C-13.793999671936035,16.070999145507812 -13.913999557495117,16.180999755859375 -13.913999557495117,16.320999145507812 C-13.913999557495117,16.320999145507812 -13.913999557495117,20.201000213623047 -13.913999557495117,20.201000213623047 C-13.913999557495117,20.340999603271484 -13.793999671936035,20.451000213623047 -13.654000282287598,20.451000213623047 C-13.654000282287598,20.451000213623047 -1.4040000438690186,20.451000213623047 -1.4040000438690186,20.451000213623047 C-0.8339999914169312,20.451000213623047 -0.36399999260902405,20.92099952697754 -0.36399999260902405,21.500999450683594 C-0.36399999260902405,22.070999145507812 -0.8339999914169312,22.541000366210938 -1.4040000438690186,22.541000366210938 C-1.4040000438690186,22.541000366210938 -13.654000282287598,22.541000366210938 -13.654000282287598,22.541000366210938 C-14.954000473022461,22.541000366210938 -16.003999710083008,21.490999221801758 -16.003999710083008,20.201000213623047 C-16.003999710083008,20.201000213623047 -16.003999710083008,16.320999145507812 -16.003999710083008,16.320999145507812 C-16.003999710083008,15.031000137329102 -14.954000473022461,13.980999946594238 -13.654000282287598,13.980999946594238 C-13.654000282287598,13.980999946594238 13.595999717712402,13.980999946594238 13.595999717712402,13.980999946594238 C14.88599967956543,13.980999946594238 15.946000099182129,15.031000137329102 15.946000099182129,16.320999145507812 C15.946000099182129,16.320999145507812 15.946000099182129,20.201000213623047 15.946000099182129,20.201000213623047 C15.946000099182129,21.490999221801758 14.88599967956543,22.541000366210938 13.595999717712402,22.541000366210938 M-0.17399999499320984,16.00200080871582 C-0.7540000081062317,16.00200080871582 -1.2239999771118164,15.531999588012695 -1.2239999771118164,14.95199966430664 C-1.2239999771118164,14.95199966430664 -1.2239999771118164,-2.2179999351501465 -1.2239999771118164,-2.2179999351501465 C-1.2239999771118164,-2.7980000972747803 -0.7540000081062317,-3.2679998874664307 -0.17399999499320984,-3.2679998874664307 C0.4059999883174896,-3.2679998874664307 0.8659999966621399,-2.7980000972747803 0.8659999966621399,-2.2179999351501465 C0.8659999966621399,-2.2179999351501465 0.8659999966621399,14.95199966430664 0.8659999966621399,14.95199966430664 C0.8659999966621399,15.531999588012695 0.4059999883174896,16.00200080871582 -0.17399999499320984,16.00200080871582 M0,-1.21 C-9.89,-1.21 -19.18,-5.06 -26.17,-12.03 C-33.17,-19.01 -37.01,-28.29 -37.01,-38.16 C-37.01,-48.03 -33.17,-57.31 -26.17,-64.29 C-19.18,-71.27 -9.89,-75.11 0,-75.11 C9.89,-75.11 19.18,-71.27 26.17,-64.29 C33.17,-57.31 37.01,-48.03 37.01,-38.16 C37.01,-28.29 33.17,-19.01 26.17,-12.03 C19.18,-5.06 9.89,-1.21 0,-1.21 M0,-73.02 C-19.26,-73.02 -34.92,-57.38 -34.92,-38.16 C-34.92,-18.94 -19.26,-3.3 0,-3.3 C19.25,-3.3 34.92,-18.94 34.92,-38.16 C34.92,-57.38 19.25,-73.02 0,-73.02 M0,-5.83 C-8.65,-5.83 -16.78,-9.19 -22.9,-15.3 C-29.02,-21.41 -32.39,-29.53 -32.39,-38.16 C-32.39,-46.8 -29.02,-54.92 -22.9,-61.03 C-16.78,-67.14 -8.65,-70.5 0,-70.5 C8.66,-70.5 16.79,-67.14 22.91,-61.03 C29.03,-54.92 32.4,-46.8 32.4,-38.16 C32.4,-29.53 29.03,-21.41 22.91,-15.3 C16.79,-9.19 8.66,-5.83 0,-5.83 M0,-68.41 C-16.71,-68.41 -30.3,-54.84 -30.3,-38.17 C-30.3,-21.49 -16.71,-7.92 0,-7.92 C16.71,-7.92 30.3,-21.49 30.3,-38.17 C30.3,-54.84 16.71,-68.41 0,-68.41">
                </path>
                <g opacity="1" transform="matrix(1,0,0,1,0,0)">
                    <g opacity="1" transform="matrix(1,0,0,1,0,-38.16400146484375)"></g>
                    <g opacity="1" transform="matrix(1,0,0,1,0,-38.16400146484375)"></g>
                </g>
            </g>
        </g>
    </g>
</svg>