<svg xmlns="http://www.w3.org/2000/svg" xmlns:xlink="http://www.w3.org/1999/xlink" viewBox="0 0 705 600" width="705"
    height="600" preserveAspectRatio="xMidYMid meet"
    style="width: 100%; height: 100%; transform: translate3d(0px, 0px, 0px); content-visibility: visible;">
    <defs>
        <clipPath id="__lottie_element_5363">
            <rect width="705" height="600" x="0" y="0"></rect>
        </clipPath>
    </defs>
    <g clip-path="url(#__lottie_element_5363)">
        <g transform="matrix(1,0,0,1,340.87701416015625,306.010986328125)" opacity="1" style="display: block;">
            <g opacity="1" transform="matrix(3,0,0,3,0,0)">
                <path fill="rgb(30,36,58)" fill-opacity="1"
                    d=" M11.48,-31.36 C8.7,-31.36 6.45,-33.61 6.45,-36.38 C6.45,-39.14 8.7,-41.39 11.48,-41.39 C14.25,-41.39 16.5,-39.14 16.5,-36.38 C16.5,-33.61 14.25,-31.36 11.48,-31.36 M11.47,-39.42 C9.79,-39.42 8.42,-38.05 8.42,-36.37 C8.42,-34.69 9.79,-33.33 11.47,-33.33 C13.16,-33.33 14.53,-34.69 14.53,-36.37 C14.53,-38.05 13.16,-39.42 11.47,-39.42 M11.227999687194824,-14.45300006866455 C10.968000411987305,-14.45300006866455 10.718000411987305,-14.553000450134277 10.527999877929688,-14.743000030517578 C10.137999534606934,-15.123000144958496 10.137999534606934,-15.753000259399414 10.527999877929688,-16.132999420166016 C10.527999877929688,-16.132999420166016 20.857999801635742,-26.44300079345703 20.857999801635742,-26.44300079345703 C21.04800033569336,-26.632999420166016 21.29800033569336,-26.732999801635742 21.558000564575195,-26.732999801635742 C21.81800079345703,-26.732999801635742 22.06800079345703,-26.632999420166016 22.257999420166016,-26.44300079345703 C22.257999420166016,-26.44300079345703 32.40800094604492,-16.322999954223633 32.40800094604492,-16.322999954223633 C32.78799819946289,-15.932999610900879 32.78799819946289,-15.312999725341797 32.40800094604492,-14.92300033569336 C32.018001556396484,-14.543000221252441 31.398000717163086,-14.543000221252441 31.007999420166016,-14.92300033569336 C31.007999420166016,-14.92300033569336 21.558000564575195,-24.35300064086914 21.558000564575195,-24.35300064086914 C21.558000564575195,-24.35300064086914 11.918000221252441,-14.743000030517578 11.918000221252441,-14.743000030517578 C11.727999687194824,-14.553000450134277 11.477999687194824,-14.45300006866455 11.227999687194824,-14.45300006866455 M20.56399917602539,-5.13100004196167 C20.31399917602539,-5.13100004196167 20.054000854492188,-5.230999946594238 19.86400032043457,-5.421000003814697 C19.86400032043457,-5.421000003814697 -9.005999565124512,-34.22100067138672 -9.005999565124512,-34.22100067138672 C-9.005999565124512,-34.22100067138672 -31.895999908447266,-11.390999794006348 -31.895999908447266,-11.390999794006348 C-32.2760009765625,-11.00100040435791 -32.90599822998047,-11.00100040435791 -33.2859992980957,-11.390999794006348 C-33.67599868774414,-11.770999908447266 -33.67599868774414,-12.390999794006348 -33.2859992980957,-12.781000137329102 C-33.2859992980957,-12.781000137329102 -9.696000099182129,-36.31100082397461 -9.696000099182129,-36.31100082397461 C-9.315999984741211,-36.70100021362305 -8.685999870300293,-36.70100021362305 -8.305999755859375,-36.31100082397461 C-8.305999755859375,-36.31100082397461 21.263999938964844,-6.810999870300293 21.263999938964844,-6.810999870300293 C21.643999099731445,-6.431000232696533 21.643999099731445,-5.810999870300293 21.263999938964844,-5.421000003814697 C21.06399917602539,-5.230999946594238 20.81399917602539,-5.13100004196167 20.56399917602539,-5.13100004196167 M32.7,-4.14 C32.7,-4.14 -32.55,-4.14 -32.55,-4.14 C-33.1,-4.14 -33.54,-4.58 -33.54,-5.12 C-33.54,-5.12 -33.54,-47.12 -33.54,-47.12 C-33.54,-47.66 -33.1,-48.1 -32.55,-48.1 C-32.55,-48.1 32.7,-48.1 32.7,-48.1 C33.24,-48.1 33.68,-47.66 33.68,-47.12 C33.68,-47.12 33.68,-5.12 33.68,-5.12 C33.68,-4.58 33.24,-4.14 32.7,-4.14 C32.7,-4.14 32.7,-4.14 32.7,-4.14z M-31.56,-6.11 C-31.56,-6.11 31.72,-6.11 31.72,-6.11 C31.72,-6.11 31.72,-46.13 31.72,-46.13 C31.72,-46.13 -31.56,-46.13 -31.56,-46.13 C-31.56,-46.13 -31.56,-6.11 -31.56,-6.11z M32.47600173950195,48.08100128173828 C32.47600173950195,48.08100128173828 -32.784000396728516,48.08100128173828 -32.784000396728516,48.08100128173828 C-33.33399963378906,48.08100128173828 -33.77399826049805,47.64099884033203 -33.77399826049805,47.090999603271484 C-33.77399826049805,46.55099868774414 -33.33399963378906,46.111000061035156 -32.784000396728516,46.111000061035156 C-32.784000396728516,46.111000061035156 32.47600173950195,46.111000061035156 32.47600173950195,46.111000061035156 C33.01599884033203,46.111000061035156 33.465999603271484,46.55099868774414 33.465999603271484,47.090999603271484 C33.465999603271484,47.64099884033203 33.01599884033203,48.08100128173828 32.47600173950195,48.08100128173828 M32.47600173950195,39.44900131225586 C32.47600173950195,39.44900131225586 -32.784000396728516,39.44900131225586 -32.784000396728516,39.44900131225586 C-33.33399963378906,39.44900131225586 -33.77399826049805,39.00899887084961 -33.77399826049805,38.45899963378906 C-33.77399826049805,37.91899871826172 -33.33399963378906,37.479000091552734 -32.784000396728516,37.479000091552734 C-32.784000396728516,37.479000091552734 32.47600173950195,37.479000091552734 32.47600173950195,37.479000091552734 C33.01599884033203,37.479000091552734 33.465999603271484,37.91899871826172 33.465999603271484,38.45899963378906 C33.465999603271484,39.00899887084961 33.01599884033203,39.44900131225586 32.47600173950195,39.44900131225586 M32.47600173950195,30.666000366210938 C32.47600173950195,30.666000366210938 -32.784000396728516,30.666000366210938 -32.784000396728516,30.666000366210938 C-33.33399963378906,30.666000366210938 -33.77399826049805,30.22599983215332 -33.77399826049805,29.676000595092773 C-33.77399826049805,29.13599967956543 -33.33399963378906,28.695999145507812 -32.784000396728516,28.695999145507812 C-32.784000396728516,28.695999145507812 32.47600173950195,28.695999145507812 32.47600173950195,28.695999145507812 C33.01599884033203,28.695999145507812 33.465999603271484,29.13599967956543 33.465999603271484,29.676000595092773 C33.465999603271484,30.22599983215332 33.01599884033203,30.666000366210938 32.47600173950195,30.666000366210938 M32.7,21.36 C32.7,21.36 7.28,21.36 7.28,21.36 C6.73,21.36 6.29,20.92 6.29,20.38 C6.29,20.38 6.29,4.22 6.29,4.22 C6.29,3.68 6.73,3.24 7.28,3.24 C7.28,3.24 32.7,3.24 32.7,3.24 C33.25,3.24 33.69,3.68 33.69,4.22 C33.69,4.22 33.69,20.38 33.69,20.38 C33.69,20.92 33.25,21.36 32.7,21.36 C32.7,21.36 32.7,21.36 32.7,21.36z M8.26,19.39 C8.26,19.39 31.71,19.39 31.71,19.39 C31.71,19.39 31.71,5.21 31.71,5.21 C31.71,5.21 8.26,5.21 8.26,5.21 C8.26,5.21 8.26,19.39 8.26,19.39z M-7.13,21.36 C-7.13,21.36 -32.55,21.36 -32.55,21.36 C-33.1,21.36 -33.54,20.92 -33.54,20.38 C-33.54,20.38 -33.54,4.22 -33.54,4.22 C-33.54,3.68 -33.1,3.24 -32.55,3.24 C-32.55,3.24 -7.13,3.24 -7.13,3.24 C-6.58,3.24 -6.14,3.68 -6.14,4.22 C-6.14,4.22 -6.14,20.38 -6.14,20.38 C-6.14,20.92 -6.58,21.36 -7.13,21.36 C-7.13,21.36 -7.13,21.36 -7.13,21.36z M-31.56,19.39 C-31.56,19.39 -8.11,19.39 -8.11,19.39 C-8.11,19.39 -8.11,5.21 -8.11,5.21 C-8.11,5.21 -31.56,5.21 -31.56,5.21 C-31.56,5.21 -31.56,19.39 -31.56,19.39z M0.12,70.69 C-2.41,70.69 -4.47,68.63 -4.47,66.11 C-4.47,63.58 -2.41,61.53 0.12,61.53 C2.65,61.53 4.71,63.58 4.71,66.11 C4.71,68.63 2.65,70.69 0.12,70.69 M0.12,63.5 C-1.33,63.5 -2.5,64.67 -2.5,66.11 C-2.5,67.55 -1.33,68.72 0.12,68.72 C1.56,68.72 2.73,67.55 2.73,66.11 C2.73,64.67 1.56,63.5 0.12,63.5 M7.285999774932861,-65.03800201416016 C7.285999774932861,-65.03800201416016 -7.133999824523926,-65.03800201416016 -7.133999824523926,-65.03800201416016 C-7.684000015258789,-65.03800201416016 -8.12399959564209,-65.47799682617188 -8.12399959564209,-66.02799987792969 C-8.12399959564209,-66.56800079345703 -7.684000015258789,-67.00800323486328 -7.133999824523926,-67.00800323486328 C-7.133999824523926,-67.00800323486328 7.285999774932861,-67.00800323486328 7.285999774932861,-67.00800323486328 C7.826000213623047,-67.00800323486328 8.265999794006348,-66.56800079345703 8.265999794006348,-66.02799987792969 C8.265999794006348,-65.47799682617188 7.826000213623047,-65.03800201416016 7.285999774932861,-65.03800201416016 M39.457000732421875,56.862998962402344 C39.457000732421875,56.862998962402344 -40.37300109863281,56.862998962402344 -40.37300109863281,56.862998962402344 C-40.92300033569336,56.862998962402344 -41.362998962402344,56.42300033569336 -41.362998962402344,55.87300109863281 C-41.362998962402344,55.33300018310547 -40.92300033569336,54.893001556396484 -40.37300109863281,54.893001556396484 C-40.37300109863281,54.893001556396484 39.457000732421875,54.893001556396484 39.457000732421875,54.893001556396484 C40.00699996948242,54.893001556396484 40.446998596191406,55.33300018310547 40.446998596191406,55.87300109863281 C40.446998596191406,56.42300033569336 40.00699996948242,56.862998962402344 39.457000732421875,56.862998962402344 M40.367000579833984,-54.891998291015625 C40.367000579833984,-54.891998291015625 -40.37300109863281,-54.891998291015625 -40.37300109863281,-54.891998291015625 C-40.92300033569336,-54.891998291015625 -41.362998962402344,-55.332000732421875 -41.362998962402344,-55.88199996948242 C-41.362998962402344,-56.422000885009766 -40.92300033569336,-56.86199951171875 -40.37300109863281,-56.86199951171875 C-40.37300109863281,-56.86199951171875 40.367000579833984,-56.86199951171875 40.367000579833984,-56.86199951171875 C40.91699981689453,-56.86199951171875 41.356998443603516,-56.422000885009766 41.356998443603516,-55.88199996948242 C41.356998443603516,-55.332000732421875 40.91699981689453,-54.891998291015625 40.367000579833984,-54.891998291015625 M35.89,77.27 C35.89,77.27 -35.83,77.27 -35.83,77.27 C-38.85,77.27 -41.31,74.81 -41.31,71.8 C-41.31,71.8 -41.31,-71.79 -41.31,-71.79 C-41.31,-74.81 -38.85,-77.26 -35.83,-77.26 C-35.83,-77.26 35.89,-77.26 35.89,-77.26 C38.91,-77.26 41.37,-74.81 41.37,-71.79 C41.37,-71.79 41.37,71.8 41.37,71.8 C41.37,74.81 38.91,77.27 35.89,77.27 C35.89,77.27 35.89,77.27 35.89,77.27z M-35.83,-75.29 C-37.77,-75.29 -39.34,-73.72 -39.34,-71.79 C-39.34,-71.79 -39.34,71.8 -39.34,71.8 C-39.34,73.73 -37.77,75.3 -35.83,75.3 C-35.83,75.3 35.88,75.3 35.88,75.3 C37.82,75.3 39.39,73.73 39.39,71.8 C39.39,71.8 39.39,-71.79 39.39,-71.79 C39.39,-73.72 37.82,-75.29 35.88,-75.29 C35.88,-75.29 -35.83,-75.29 -35.83,-75.29z">
                </path>
                <g opacity="1" transform="matrix(1,0,0,1,11.472999572753906,-36.37799835205078)"></g>
                <g opacity="1" transform="matrix(1,0,0,1,0.07400000095367432,-26.121000289916992)"></g>
                <g opacity="1" transform="matrix(1,0,0,1,19.985000610351562,12.298999786376953)"></g>
                <g opacity="1" transform="matrix(1,0,0,1,-19.836999893188477,12.298999786376953)"></g>
                <g opacity="1" transform="matrix(1,0,0,1,0.11699999868869781,66.11199951171875)"></g>
                <g opacity="1" transform="matrix(1,0,0,1,0.024000000208616257,0)"></g>
            </g>
        </g>
        <g transform="matrix(1,0,0,1,133.00900268554688,391.6449890136719)" opacity="0.08999986683239546"
            style="display: block;">
            <g opacity="1" transform="matrix(3,0,0,3,0,0)">
                <path fill="rgb(30,36,58)" fill-opacity="1"
                    d=" M-28.916000366210938,23.322999954223633 C-29.496000289916992,23.322999954223633 -29.97599983215332,22.843000411987305 -29.97599983215332,22.26300048828125 C-29.97599983215332,22.26300048828125 -29.97599983215332,20.44300079345703 -29.97599983215332,20.44300079345703 C-29.97599983215332,19.85300064086914 -29.496000289916992,19.382999420166016 -28.916000366210938,19.382999420166016 C-28.326000213623047,19.382999420166016 -27.856000900268555,19.85300064086914 -27.856000900268555,20.44300079345703 C-27.856000900268555,20.44300079345703 -27.856000900268555,22.26300048828125 -27.856000900268555,22.26300048828125 C-27.856000900268555,22.843000411987305 -28.326000213623047,23.322999954223633 -28.916000366210938,23.322999954223633 M-28.92,15.9 C-29.5,15.9 -29.98,15.43 -29.98,14.84 C-29.98,14.84 -29.98,11.21 -29.98,11.21 C-29.98,10.62 -29.5,10.15 -28.92,10.15 C-28.33,10.15 -27.86,10.62 -27.86,11.21 C-27.86,11.21 -27.86,14.84 -27.86,14.84 C-27.86,15.43 -28.33,15.9 -28.92,15.9 M-28.92,7.11 C-29.5,7.11 -29.98,6.64 -29.98,6.05 C-29.98,6.05 -29.98,2.42 -29.98,2.42 C-29.98,1.83 -29.5,1.36 -28.92,1.36 C-28.33,1.36 -27.86,1.83 -27.86,2.42 C-27.86,2.42 -27.86,6.05 -27.86,6.05 C-27.86,6.64 -28.33,7.11 -28.92,7.11 M-28.92,-1.67 C-29.5,-1.67 -29.98,-2.14 -29.98,-2.73 C-29.98,-2.73 -29.98,-6.36 -29.98,-6.36 C-29.98,-6.95 -29.5,-7.42 -28.92,-7.42 C-28.33,-7.42 -27.86,-6.95 -27.86,-6.36 C-27.86,-6.36 -27.86,-2.73 -27.86,-2.73 C-27.86,-2.14 -28.33,-1.67 -28.92,-1.67 M-28.92,-10.45 C-29.5,-10.45 -29.98,-10.92 -29.98,-11.51 C-29.98,-11.51 -29.98,-15.14 -29.98,-15.14 C-29.98,-15.73 -29.5,-16.2 -28.92,-16.2 C-28.33,-16.2 -27.86,-15.73 -27.86,-15.14 C-27.86,-15.14 -27.86,-11.51 -27.86,-11.51 C-27.86,-10.92 -28.33,-10.45 -28.92,-10.45 M-28.92,-19.23 C-29.5,-19.23 -29.98,-19.71 -29.98,-20.29 C-29.98,-20.29 -29.98,-22.26 -29.98,-22.26 C-29.98,-22.85 -29.5,-23.32 -28.92,-23.32 C-28.92,-23.32 -27.1,-23.32 -27.1,-23.32 C-26.51,-23.32 -26.03,-22.85 -26.03,-22.26 C-26.03,-21.67 -26.51,-21.2 -27.1,-21.2 C-27.1,-21.2 -27.86,-21.2 -27.86,-21.2 C-27.86,-21.2 -27.86,-20.29 -27.86,-20.29 C-27.86,-19.71 -28.33,-19.23 -28.92,-19.23 M21.32,-21.2 C21.32,-21.2 17.22,-21.2 17.22,-21.2 C16.64,-21.2 16.16,-21.67 16.16,-22.26 C16.16,-22.85 16.64,-23.32 17.22,-23.32 C17.22,-23.32 21.32,-23.32 21.32,-23.32 C21.91,-23.32 22.38,-22.85 22.38,-22.26 C22.38,-21.67 21.91,-21.2 21.32,-21.2 M11.61,-21.2 C11.61,-21.2 7.51,-21.2 7.51,-21.2 C6.93,-21.2 6.45,-21.67 6.45,-22.26 C6.45,-22.85 6.93,-23.32 7.51,-23.32 C7.51,-23.32 11.61,-23.32 11.61,-23.32 C12.2,-23.32 12.67,-22.85 12.67,-22.26 C12.67,-21.67 12.2,-21.2 11.61,-21.2 M1.9,-21.2 C1.9,-21.2 -2.2,-21.2 -2.2,-21.2 C-2.78,-21.2 -3.26,-21.67 -3.26,-22.26 C-3.26,-22.85 -2.78,-23.32 -2.2,-23.32 C-2.2,-23.32 1.9,-23.32 1.9,-23.32 C2.49,-23.32 2.96,-22.85 2.96,-22.26 C2.96,-21.67 2.49,-21.2 1.9,-21.2 M-7.82,-21.2 C-7.82,-21.2 -11.92,-21.2 -11.92,-21.2 C-12.5,-21.2 -12.98,-21.67 -12.98,-22.26 C-12.98,-22.85 -12.5,-23.32 -11.92,-23.32 C-11.92,-23.32 -7.82,-23.32 -7.82,-23.32 C-7.23,-23.32 -6.76,-22.85 -6.76,-22.26 C-6.76,-21.67 -7.23,-21.2 -7.82,-21.2 M-17.53,-21.2 C-17.53,-21.2 -21.63,-21.2 -21.63,-21.2 C-22.21,-21.2 -22.69,-21.67 -22.69,-22.26 C-22.69,-22.85 -22.21,-23.32 -21.63,-23.32 C-21.63,-23.32 -17.53,-23.32 -17.53,-23.32 C-16.94,-23.32 -16.47,-22.85 -16.47,-22.26 C-16.47,-21.67 -16.94,-21.2 -17.53,-21.2 M28.92,-21.2 C28.92,-21.2 26.94,-21.2 26.94,-21.2 C26.36,-21.2 25.88,-21.67 25.88,-22.26 C25.88,-22.85 26.36,-23.32 26.94,-23.32 C26.94,-23.32 28.92,-23.32 28.92,-23.32 C29.5,-23.32 29.98,-22.85 29.98,-22.26 C29.98,-21.67 29.5,-21.2 28.92,-21.2">
                </path>
                <g opacity="1" transform="matrix(1,0,0,1,0,-3.7100000381469727)">
                    <g opacity="1" transform="matrix(1,0,0,1,-28.913000106811523,3.559000015258789)"></g>
                    <g opacity="1" transform="matrix(1,0,0,1,-0.15199999511241913,-18.549999237060547)"></g>
                </g>
            </g>
        </g>
        <g transform="matrix(1,0,0,1,46.750999450683594,528.27197265625)" opacity="1" style="display: none;">
            <g opacity="1" transform="matrix(3,0,0,3,0,0)">
                <path fill="rgb(30,36,58)" fill-opacity="1"
                    d=" M14.595999717712402,19.19099998474121 C14.055999755859375,19.19099998474121 13.605999946594238,18.750999450683594 13.605999946594238,18.211000442504883 C13.605999946594238,10.720999717712402 7.50600004196167,4.63100004196167 -0.004000000189989805,4.63100004196167 C-7.504000186920166,4.63100004196167 -13.61400032043457,10.720999717712402 -13.61400032043457,18.211000442504883 C-13.61400032043457,18.750999450683594 -14.053999900817871,19.19099998474121 -14.593999862670898,19.19099998474121 C-15.144000053405762,19.19099998474121 -15.583999633789062,18.750999450683594 -15.583999633789062,18.211000442504883 C-15.583999633789062,9.630999565124512 -8.593999862670898,2.6610000133514404 -0.004000000189989805,2.6610000133514404 C8.595999717712402,2.6610000133514404 15.586000442504883,9.630999565124512 15.586000442504883,18.211000442504883 C15.586000442504883,18.750999450683594 15.145999908447266,19.19099998474121 14.595999717712402,19.19099998474121 M0,4.63 C-6.58,4.63 -11.94,-0.71 -11.94,-7.28 C-11.94,-13.85 -6.58,-19.19 0,-19.19 C6.58,-19.19 11.94,-13.85 11.94,-7.28 C11.94,-0.71 6.58,4.63 0,4.63 M0,-17.22 C-5.5,-17.22 -9.97,-12.76 -9.97,-7.29 C-9.97,-1.8 -5.5,2.66 0,2.66 C5.49,2.66 9.96,-1.8 9.96,-7.29 C9.96,-12.76 5.49,-17.22 0,-17.22">
                </path>
                <g opacity="1" transform="matrix(1,0,0,1,0,-7.2820000648498535)"></g>
            </g>
        </g>
        <g transform="matrix(1,0,0,1,133.00900268554688,210.83799743652344)" opacity="0.2" style="display: none;">
            <g opacity="1" transform="matrix(3,0,0,3,0,0)">
                <path fill="rgb(30,36,58)" fill-opacity="1"
                    d=" M-28.916000366210938,-22.40999984741211 C-29.496000289916992,-22.40999984741211 -29.97599983215332,-22.889999389648438 -29.97599983215332,-23.469999313354492 C-29.97599983215332,-23.469999313354492 -29.97599983215332,-25.440000534057617 -29.97599983215332,-25.440000534057617 C-29.97599983215332,-26.030000686645508 -29.496000289916992,-26.5 -28.916000366210938,-26.5 C-28.326000213623047,-26.5 -27.856000900268555,-26.030000686645508 -27.856000900268555,-25.440000534057617 C-27.856000900268555,-25.440000534057617 -27.856000900268555,-23.469999313354492 -27.856000900268555,-23.469999313354492 C-27.856000900268555,-22.889999389648438 -28.326000213623047,-22.40999984741211 -28.916000366210938,-22.40999984741211 M-28.92,19.68 C-29.5,19.68 -29.98,19.21 -29.98,18.62 C-29.98,18.62 -29.98,15.14 -29.98,15.14 C-29.98,14.55 -29.5,14.08 -28.92,14.08 C-28.33,14.08 -27.86,14.55 -27.86,15.14 C-27.86,15.14 -27.86,18.62 -27.86,18.62 C-27.86,19.21 -28.33,19.68 -28.92,19.68 M-28.92,11.35 C-29.5,11.35 -29.98,10.88 -29.98,10.29 C-29.98,10.29 -29.98,6.81 -29.98,6.81 C-29.98,6.22 -29.5,5.75 -28.92,5.75 C-28.33,5.75 -27.86,6.22 -27.86,6.81 C-27.86,6.81 -27.86,10.29 -27.86,10.29 C-27.86,10.88 -28.33,11.35 -28.92,11.35 M-28.92,3.03 C-29.5,3.03 -29.98,2.56 -29.98,1.97 C-29.98,1.97 -29.98,-1.51 -29.98,-1.51 C-29.98,-2.1 -29.5,-2.57 -28.92,-2.57 C-28.33,-2.57 -27.86,-2.1 -27.86,-1.51 C-27.86,-1.51 -27.86,1.97 -27.86,1.97 C-27.86,2.56 -28.33,3.03 -28.92,3.03 M-28.92,-5.3 C-29.5,-5.3 -29.98,-5.77 -29.98,-6.36 C-29.98,-6.36 -29.98,-9.84 -29.98,-9.84 C-29.98,-10.43 -29.5,-10.9 -28.92,-10.9 C-28.33,-10.9 -27.86,-10.43 -27.86,-9.84 C-27.86,-9.84 -27.86,-6.36 -27.86,-6.36 C-27.86,-5.77 -28.33,-5.3 -28.92,-5.3 M-28.92,-13.63 C-29.5,-13.63 -29.98,-14.1 -29.98,-14.69 C-29.98,-14.69 -29.98,-18.17 -29.98,-18.17 C-29.98,-18.76 -29.5,-19.23 -28.92,-19.23 C-28.33,-19.23 -27.86,-18.76 -27.86,-18.17 C-27.86,-18.17 -27.86,-14.69 -27.86,-14.69 C-27.86,-14.1 -28.33,-13.63 -28.92,-13.63 M-27.09600067138672,26.503000259399414 C-27.09600067138672,26.503000259399414 -28.916000366210938,26.503000259399414 -28.916000366210938,26.503000259399414 C-29.496000289916992,26.503000259399414 -29.97599983215332,26.023000717163086 -29.97599983215332,25.44300079345703 C-29.97599983215332,25.44300079345703 -29.97599983215332,23.62299919128418 -29.97599983215332,23.62299919128418 C-29.97599983215332,23.033000946044922 -29.496000289916992,22.562999725341797 -28.916000366210938,22.562999725341797 C-28.326000213623047,22.562999725341797 -27.856000900268555,23.033000946044922 -27.856000900268555,23.62299919128418 C-27.856000900268555,23.62299919128418 -27.856000900268555,24.382999420166016 -27.856000900268555,24.382999420166016 C-27.856000900268555,24.382999420166016 -27.09600067138672,24.382999420166016 -27.09600067138672,24.382999420166016 C-26.506000518798828,24.382999420166016 -26.025999069213867,24.85300064086914 -26.025999069213867,25.44300079345703 C-26.025999069213867,26.023000717163086 -26.506000518798828,26.503000259399414 -27.09600067138672,26.503000259399414 M21.32,26.5 C21.32,26.5 17.22,26.5 17.22,26.5 C16.64,26.5 16.16,26.03 16.16,25.44 C16.16,24.85 16.64,24.38 17.22,24.38 C17.22,24.38 21.32,24.38 21.32,24.38 C21.91,24.38 22.38,24.85 22.38,25.44 C22.38,26.03 21.91,26.5 21.32,26.5 M11.61,26.5 C11.61,26.5 7.51,26.5 7.51,26.5 C6.93,26.5 6.45,26.03 6.45,25.44 C6.45,24.85 6.93,24.38 7.51,24.38 C7.51,24.38 11.61,24.38 11.61,24.38 C12.2,24.38 12.67,24.85 12.67,25.44 C12.67,26.03 12.2,26.5 11.61,26.5 M1.9,26.5 C1.9,26.5 -2.2,26.5 -2.2,26.5 C-2.78,26.5 -3.26,26.03 -3.26,25.44 C-3.26,24.85 -2.78,24.38 -2.2,24.38 C-2.2,24.38 1.9,24.38 1.9,24.38 C2.49,24.38 2.96,24.85 2.96,25.44 C2.96,26.03 2.49,26.5 1.9,26.5 M-7.82,26.5 C-7.82,26.5 -11.92,26.5 -11.92,26.5 C-12.5,26.5 -12.98,26.03 -12.98,25.44 C-12.98,24.85 -12.5,24.38 -11.92,24.38 C-11.92,24.38 -7.82,24.38 -7.82,24.38 C-7.23,24.38 -6.76,24.85 -6.76,25.44 C-6.76,26.03 -7.23,26.5 -7.82,26.5 M-17.53,26.5 C-17.53,26.5 -21.63,26.5 -21.63,26.5 C-22.21,26.5 -22.69,26.03 -22.69,25.44 C-22.69,24.85 -22.21,24.38 -21.63,24.38 C-21.63,24.38 -17.53,24.38 -17.53,24.38 C-16.94,24.38 -16.47,24.85 -16.47,25.44 C-16.47,26.03 -16.94,26.5 -17.53,26.5 M28.917999267578125,26.5 C28.917999267578125,26.5 26.937999725341797,26.5 26.937999725341797,26.5 C26.357999801635742,26.5 25.878000259399414,26.030000686645508 25.878000259399414,25.440000534057617 C25.878000259399414,24.850000381469727 26.357999801635742,24.3799991607666 26.937999725341797,24.3799991607666 C26.937999725341797,24.3799991607666 28.917999267578125,24.3799991607666 28.917999267578125,24.3799991607666 C29.49799919128418,24.3799991607666 29.97800064086914,24.850000381469727 29.97800064086914,25.440000534057617 C29.97800064086914,26.030000686645508 29.49799919128418,26.5 28.917999267578125,26.5">
                </path>
                <g opacity="1" transform="matrix(1,0,0,1,-28.913000106811523,0.22699999809265137)"></g>
                <g opacity="1" transform="matrix(1,0,0,1,-0.15199999511241913,25.440000534057617)"></g>
            </g>
        </g>
        <g transform="matrix(1,0,0,1,46.49700164794922,62.16600036621094)" opacity="1" style="display: none;">
            <g opacity="1" transform="matrix(3,0,0,3,0,0)">
                <path fill="rgb(30,36,58)" fill-opacity="1"
                    d=" M0,1.31 C-3.87,1.31 -7.01,-1.83 -7.01,-5.68 C-7.01,-9.53 -3.87,-12.67 0,-12.67 C3.86,-12.67 7,-9.53 7,-5.68 C7,-1.83 3.86,1.31 0,1.31 M0,-10.7 C-2.77,-10.7 -5.03,-8.45 -5.03,-5.68 C-5.03,-2.91 -2.77,-0.66 0,-0.66 C2.78,-0.66 5.04,-2.91 5.04,-5.68 C5.04,-8.45 2.78,-10.7 0,-10.7 M0.003000000026077032,19.718000411987305 C-0.007000000216066837,19.718000411987305 -0.007000000216066837,19.718000411987305 -0.017000000923871994,19.718000411987305 C-0.2770000100135803,19.718000411987305 -0.5270000100135803,19.607999801635742 -0.7070000171661377,19.42799949645996 C-1.2869999408721924,18.827999114990234 -14.82699966430664,4.817999839782715 -14.82699966430664,-4.932000160217285 C-14.82699966430664,-13.081999778747559 -8.177000045776367,-19.722000122070312 0.003000000026077032,-19.722000122070312 C8.17300033569336,-19.722000122070312 14.822999954223633,-13.081999778747559 14.822999954223633,-4.932000160217285 C14.822999954223633,5.5879998207092285 1.2630000114440918,18.878000259399414 0.6930000185966492,19.437999725341797 C0.503000020980835,19.618000030517578 0.2529999911785126,19.718000411987305 0.003000000026077032,19.718000411987305 M-0.004000000189989805,-17.753000259399414 C-7.084000110626221,-17.753000259399414 -12.854000091552734,-12.003000259399414 -12.854000091552734,-4.933000087738037 C-12.854000091552734,2.8369998931884766 -2.74399995803833,14.32699966430664 0.01600000075995922,17.316999435424805 C2.805999994277954,14.437000274658203 12.855999946594238,3.4570000171661377 12.855999946594238,-4.933000087738037 C12.855999946594238,-12.003000259399414 7.085999965667725,-17.753000259399414 -0.004000000189989805,-17.753000259399414">
                </path>
                <g opacity="1" transform="matrix(1,0,0,1,0,-5.677000045776367)"></g>
                <g opacity="1" transform="matrix(1,0,0,1,0,0)"></g>
            </g>
        </g>
        <g transform="matrix(1,0,0,1,550.9979858398438,216.06199645996094)" opacity="0.19999951332164714"
            style="display: none;">
            <g opacity="1" transform="matrix(3,0,0,3,0,0)">
                <path fill="rgb(30,36,58)" fill-opacity="1"
                    d=" M28.76,-20.67 C28.18,-20.67 27.7,-21.15 27.7,-21.73 C27.7,-21.73 27.7,-23.7 27.7,-23.7 C27.7,-24.29 28.18,-24.76 28.76,-24.76 C29.35,-24.76 29.82,-24.29 29.82,-23.7 C29.82,-23.7 29.82,-21.73 29.82,-21.73 C29.82,-21.15 29.35,-20.67 28.76,-20.67 M28.76,17.34 C28.18,17.34 27.7,16.86 27.7,16.28 C27.7,16.28 27.7,12.34 27.7,12.34 C27.7,11.75 28.18,11.28 28.76,11.28 C29.35,11.28 29.82,11.75 29.82,12.34 C29.82,12.34 29.82,16.28 29.82,16.28 C29.82,16.86 29.35,17.34 28.76,17.34 M28.76,7.8 C28.18,7.8 27.7,7.32 27.7,6.74 C27.7,6.74 27.7,2.8 27.7,2.8 C27.7,2.21 28.18,1.74 28.76,1.74 C29.35,1.74 29.82,2.21 29.82,2.8 C29.82,2.8 29.82,6.74 29.82,6.74 C29.82,7.32 29.35,7.8 28.76,7.8 M28.76,-1.74 C28.18,-1.74 27.7,-2.22 27.7,-2.8 C27.7,-2.8 27.7,-6.74 27.7,-6.74 C27.7,-7.33 28.18,-7.8 28.76,-7.8 C29.35,-7.8 29.82,-7.33 29.82,-6.74 C29.82,-6.74 29.82,-2.8 29.82,-2.8 C29.82,-2.22 29.35,-1.74 28.76,-1.74 M28.76,-11.28 C28.18,-11.28 27.7,-11.76 27.7,-12.34 C27.7,-12.34 27.7,-16.28 27.7,-16.28 C27.7,-16.87 28.18,-17.34 28.76,-17.34 C29.35,-17.34 29.82,-16.87 29.82,-16.28 C29.82,-16.28 29.82,-12.34 29.82,-12.34 C29.82,-11.76 29.35,-11.28 28.76,-11.28 M28.77,24.76 C28.77,24.76 26.78,24.76 26.78,24.76 C26.2,24.76 25.72,24.28 25.72,23.7 C25.72,23.11 26.2,22.64 26.78,22.64 C26.78,22.64 27.69,22.64 27.69,22.64 C27.69,22.64 27.69,21.88 27.69,21.88 C27.69,21.29 28.18,20.82 28.77,20.82 C29.35,20.82 29.83,21.29 29.83,21.88 C29.83,21.88 29.83,23.7 29.83,23.7 C29.83,24.28 29.35,24.76 28.77,24.76 M20.87,24.76 C20.87,24.76 16.92,24.76 16.92,24.76 C16.34,24.76 15.86,24.29 15.86,23.7 C15.86,23.11 16.34,22.64 16.92,22.64 C16.92,22.64 20.87,22.64 20.87,22.64 C21.46,22.64 21.93,23.11 21.93,23.7 C21.93,24.29 21.46,24.76 20.87,24.76 M11.31,24.76 C11.31,24.76 7.36,24.76 7.36,24.76 C6.78,24.76 6.3,24.29 6.3,23.7 C6.3,23.11 6.78,22.64 7.36,22.64 C7.36,22.64 11.31,22.64 11.31,22.64 C11.9,22.64 12.37,23.11 12.37,23.7 C12.37,24.29 11.9,24.76 11.31,24.76 M1.75,24.76 C1.75,24.76 -2.2,24.76 -2.2,24.76 C-2.78,24.76 -3.26,24.29 -3.26,23.7 C-3.26,23.11 -2.78,22.64 -2.2,22.64 C-2.2,22.64 1.75,22.64 1.75,22.64 C2.34,22.64 2.81,23.11 2.81,23.7 C2.81,24.29 2.34,24.76 1.75,24.76 M-7.82,24.76 C-7.82,24.76 -11.76,24.76 -11.76,24.76 C-12.34,24.76 -12.83,24.29 -12.83,23.7 C-12.83,23.11 -12.34,22.64 -11.76,22.64 C-11.76,22.64 -7.82,22.64 -7.82,22.64 C-7.23,22.64 -6.76,23.11 -6.76,23.7 C-6.76,24.29 -7.23,24.76 -7.82,24.76 M-17.38,24.76 C-17.38,24.76 -21.33,24.76 -21.33,24.76 C-21.91,24.76 -22.39,24.29 -22.39,23.7 C-22.39,23.11 -21.91,22.64 -21.33,22.64 C-21.33,22.64 -17.38,22.64 -17.38,22.64 C-16.79,22.64 -16.32,23.11 -16.32,23.7 C-16.32,24.29 -16.79,24.76 -17.38,24.76 M-26.944000244140625,24.759000778198242 C-26.944000244140625,24.759000778198242 -28.763999938964844,24.759000778198242 -28.763999938964844,24.759000778198242 C-29.3439998626709,24.759000778198242 -29.823999404907227,24.288999557495117 -29.823999404907227,23.698999404907227 C-29.823999404907227,23.108999252319336 -29.3439998626709,22.638999938964844 -28.763999938964844,22.638999938964844 C-28.763999938964844,22.638999938964844 -26.944000244140625,22.638999938964844 -26.944000244140625,22.638999938964844 C-26.354000091552734,22.638999938964844 -25.874000549316406,23.108999252319336 -25.874000549316406,23.698999404907227 C-25.874000549316406,24.288999557495117 -26.354000091552734,24.759000778198242 -26.944000244140625,24.759000778198242">
                </path>
                <g opacity="1" transform="matrix(1,0,0,1,3.7179999351501465,0)">
                    <g opacity="1" transform="matrix(1,0,0,1,25.042999267578125,0)"></g>
                    <g opacity="1" transform="matrix(1,0,0,1,-3.946000099182129,23.698999404907227)"></g>
                </g>
            </g>
        </g>
        <g transform="matrix(1,0,0,1,627.9630126953125,72.1709976196289)" opacity="0.9999993719988319"
            style="display: none;">
            <g opacity="1" transform="matrix(3,0,0,3,0,0)">
                <path fill="rgb(30,36,58)" fill-opacity="1"
                    d=" M13.32,0.36 C10.87,0.36 8.88,-1.63 8.88,-4.08 C8.88,-6.52 10.87,-8.51 13.32,-8.51 C15.77,-8.51 17.77,-6.52 17.77,-4.08 C17.77,-1.63 15.77,0.36 13.32,0.36 M13.33,-6.39 C12.05,-6.39 11.01,-5.35 11.01,-4.08 C11.01,-2.8 12.05,-1.76 13.33,-1.76 C14.61,-1.76 15.65,-2.8 15.65,-4.08 C15.65,-5.35 14.61,-6.39 13.33,-6.39 M0,0.36 C-2.45,0.36 -4.44,-1.63 -4.44,-4.08 C-4.44,-6.52 -2.45,-8.51 0,-8.51 C2.45,-8.51 4.45,-6.52 4.45,-4.08 C4.45,-1.63 2.45,0.36 0,0.36 M0,-6.39 C-1.28,-6.39 -2.32,-5.35 -2.32,-4.08 C-2.32,-2.8 -1.28,-1.76 0,-1.76 C1.28,-1.76 2.32,-2.8 2.32,-4.08 C2.32,-5.35 1.28,-6.39 0,-6.39 M-13.33,0.36 C-15.78,0.36 -17.77,-1.63 -17.77,-4.08 C-17.77,-6.52 -15.78,-8.51 -13.33,-8.51 C-10.88,-8.51 -8.88,-6.52 -8.88,-4.08 C-8.88,-1.63 -10.88,0.36 -13.33,0.36 M-13.32,-6.39 C-14.6,-6.39 -15.64,-5.35 -15.64,-4.08 C-15.64,-2.8 -14.6,-1.76 -13.32,-1.76 C-12.04,-1.76 -11,-2.8 -11,-4.08 C-11,-5.35 -12.04,-6.39 -13.32,-6.39 M3.311000108718872,20.506999969482422 C3.0309998989105225,20.506999969482422 2.760999917984009,20.39699935913086 2.561000108718872,20.19700050354004 C2.561000108718872,20.19700050354004 -5.408999919891357,12.237000465393066 -5.408999919891357,12.237000465393066 C-5.408999919891357,12.237000465393066 -17.608999252319336,12.237000465393066 -17.608999252319336,12.237000465393066 C-21.509000778198242,12.237000465393066 -24.679000854492188,9.067000389099121 -24.679000854492188,5.186999797821045 C-24.679000854492188,5.186999797821045 -24.679000854492188,-13.45300006866455 -24.679000854492188,-13.45300006866455 C-24.679000854492188,-17.343000411987305 -21.509000778198242,-20.503000259399414 -17.608999252319336,-20.503000259399414 C-17.608999252319336,-20.503000259399414 17.611000061035156,-20.503000259399414 17.611000061035156,-20.503000259399414 C21.51099967956543,-20.503000259399414 24.680999755859375,-17.343000411987305 24.680999755859375,-13.45300006866455 C24.680999755859375,-13.45300006866455 24.680999755859375,5.186999797821045 24.680999755859375,5.186999797821045 C24.680999755859375,9.067000389099121 21.51099967956543,12.237000465393066 17.611000061035156,12.237000465393066 C17.611000061035156,12.237000465393066 9.901000022888184,12.237000465393066 9.901000022888184,12.237000465393066 C9.901000022888184,12.237000465393066 4.171000003814697,20.066999435424805 4.171000003814697,20.066999435424805 C3.990999937057495,20.316999435424805 3.7109999656677246,20.476999282836914 3.4010000228881836,20.496999740600586 C3.371000051498413,20.496999740600586 3.3410000801086426,20.506999969482422 3.311000108718872,20.506999969482422 C3.311000108718872,20.506999969482422 3.311000108718872,20.506999969482422 3.311000108718872,20.506999969482422z M-17.604000091552734,-18.382999420166016 C-20.333999633789062,-18.382999420166016 -22.554000854492188,-16.17300033569336 -22.554000854492188,-13.45300006866455 C-22.554000854492188,-13.45300006866455 -22.554000854492188,5.186999797821045 -22.554000854492188,5.186999797821045 C-22.554000854492188,7.9070000648498535 -20.333999633789062,10.116999626159668 -17.604000091552734,10.116999626159668 C-17.604000091552734,10.116999626159668 -4.973999977111816,10.116999626159668 -4.973999977111816,10.116999626159668 C-4.693999767303467,10.116999626159668 -4.423999786376953,10.22700023651123 -4.223999977111816,10.427000045776367 C-4.223999977111816,10.427000045776367 3.186000108718872,17.816999435424805 3.186000108718872,17.816999435424805 C3.186000108718872,17.816999435424805 8.505999565124512,10.54699993133545 8.505999565124512,10.54699993133545 C8.706000328063965,10.277000427246094 9.026000022888184,10.116999626159668 9.355999946594238,10.116999626159668 C9.355999946594238,10.116999626159668 17.606000900268555,10.116999626159668 17.606000900268555,10.116999626159668 C20.336000442504883,10.116999626159668 22.555999755859375,7.9070000648498535 22.555999755859375,5.186999797821045 C22.555999755859375,5.186999797821045 22.555999755859375,-13.45300006866455 22.555999755859375,-13.45300006866455 C22.555999755859375,-16.17300033569336 20.336000442504883,-18.382999420166016 17.606000900268555,-18.382999420166016 C17.606000900268555,-18.382999420166016 -17.604000091552734,-18.382999420166016 -17.604000091552734,-18.382999420166016z">
                </path>
                <g opacity="1" transform="matrix(1,0,0,1,13.324999809265137,-4.079999923706055)"></g>
                <g opacity="1" transform="matrix(1,0,0,1,0,-4.079999923706055)"></g>
                <g opacity="1" transform="matrix(1,0,0,1,-13.324999809265137,-4.079999923706055)"></g>
                <g opacity="1" transform="matrix(1,0,0,1,0,0)"></g>
            </g>
        </g>
        <g transform="matrix(1,0,0,1,550.9979858398438,393.9159851074219)" opacity="0.19999961543811126"
            style="display: none;">
            <g opacity="1" transform="matrix(3,0,0,3,0,0)">
                <path fill="rgb(30,36,58)" fill-opacity="1"
                    d=" M28.759000778198242,24.079999923706055 C28.179000854492188,24.079999923706055 27.698999404907227,23.600000381469727 27.698999404907227,23.020000457763672 C27.698999404907227,23.020000457763672 27.698999404907227,21.200000762939453 27.698999404907227,21.200000762939453 C27.698999404907227,20.610000610351562 28.179000854492188,20.139999389648438 28.759000778198242,20.139999389648438 C29.349000930786133,20.139999389648438 29.819000244140625,20.610000610351562 29.819000244140625,21.200000762939453 C29.819000244140625,21.200000762939453 29.819000244140625,23.020000457763672 29.819000244140625,23.020000457763672 C29.819000244140625,23.600000381469727 29.349000930786133,24.079999923706055 28.759000778198242,24.079999923706055 M28.76,16.81 C28.18,16.81 27.7,16.33 27.7,15.75 C27.7,15.75 27.7,11.96 27.7,11.96 C27.7,11.37 28.18,10.9 28.76,10.9 C29.35,10.9 29.82,11.37 29.82,11.96 C29.82,11.96 29.82,15.75 29.82,15.75 C29.82,16.33 29.35,16.81 28.76,16.81 M28.76,7.58 C28.18,7.58 27.7,7.1 27.7,6.52 C27.7,6.52 27.7,2.73 27.7,2.73 C27.7,2.14 28.18,1.67 28.76,1.67 C29.35,1.67 29.82,2.14 29.82,2.73 C29.82,2.73 29.82,6.52 29.82,6.52 C29.82,7.1 29.35,7.58 28.76,7.58 M28.76,-1.66 C28.18,-1.66 27.7,-2.14 27.7,-2.72 C27.7,-2.72 27.7,-6.51 27.7,-6.51 C27.7,-7.1 28.18,-7.57 28.76,-7.57 C29.35,-7.57 29.82,-7.1 29.82,-6.51 C29.82,-6.51 29.82,-2.72 29.82,-2.72 C29.82,-2.14 29.35,-1.66 28.76,-1.66 M28.76,-10.9 C28.18,-10.9 27.7,-11.38 27.7,-11.96 C27.7,-11.96 27.7,-15.75 27.7,-15.75 C27.7,-16.34 28.18,-16.81 28.76,-16.81 C29.35,-16.81 29.82,-16.34 29.82,-15.75 C29.82,-15.75 29.82,-11.96 29.82,-11.96 C29.82,-11.38 29.35,-10.9 28.76,-10.9 M28.766000747680664,-19.98699951171875 C28.176000595092773,-19.98699951171875 27.695999145507812,-20.466999053955078 27.695999145507812,-21.047000885009766 C27.695999145507812,-21.047000885009766 27.695999145507812,-21.957000732421875 27.695999145507812,-21.957000732421875 C27.695999145507812,-21.957000732421875 26.785999298095703,-21.957000732421875 26.785999298095703,-21.957000732421875 C26.20599937438965,-21.957000732421875 25.72599983215332,-22.427000045776367 25.72599983215332,-23.017000198364258 C25.72599983215332,-23.60700035095215 26.20599937438965,-24.07699966430664 26.785999298095703,-24.07699966430664 C26.785999298095703,-24.07699966430664 28.766000747680664,-24.07699966430664 28.766000747680664,-24.07699966430664 C29.34600067138672,-24.07699966430664 29.826000213623047,-23.60700035095215 29.826000213623047,-23.017000198364258 C29.826000213623047,-23.017000198364258 29.826000213623047,-21.047000885009766 29.826000213623047,-21.047000885009766 C29.826000213623047,-20.466999053955078 29.34600067138672,-19.98699951171875 28.766000747680664,-19.98699951171875 M20.87,-21.96 C20.87,-21.96 16.92,-21.96 16.92,-21.96 C16.34,-21.96 15.86,-22.43 15.86,-23.02 C15.86,-23.61 16.34,-24.08 16.92,-24.08 C16.92,-24.08 20.87,-24.08 20.87,-24.08 C21.46,-24.08 21.93,-23.61 21.93,-23.02 C21.93,-22.43 21.46,-21.96 20.87,-21.96 M11.31,-21.96 C11.31,-21.96 7.36,-21.96 7.36,-21.96 C6.78,-21.96 6.3,-22.43 6.3,-23.02 C6.3,-23.61 6.78,-24.08 7.36,-24.08 C7.36,-24.08 11.31,-24.08 11.31,-24.08 C11.9,-24.08 12.37,-23.61 12.37,-23.02 C12.37,-22.43 11.9,-21.96 11.31,-21.96 M1.75,-21.96 C1.75,-21.96 -2.2,-21.96 -2.2,-21.96 C-2.78,-21.96 -3.26,-22.43 -3.26,-23.02 C-3.26,-23.61 -2.78,-24.08 -2.2,-24.08 C-2.2,-24.08 1.75,-24.08 1.75,-24.08 C2.34,-24.08 2.81,-23.61 2.81,-23.02 C2.81,-22.43 2.34,-21.96 1.75,-21.96 M-7.81,-21.96 C-7.81,-21.96 -11.76,-21.96 -11.76,-21.96 C-12.34,-21.96 -12.83,-22.43 -12.83,-23.02 C-12.83,-23.61 -12.34,-24.08 -11.76,-24.08 C-11.76,-24.08 -7.81,-24.08 -7.81,-24.08 C-7.23,-24.08 -6.75,-23.61 -6.75,-23.02 C-6.75,-22.43 -7.23,-21.96 -7.81,-21.96 M-17.38,-21.96 C-17.38,-21.96 -21.33,-21.96 -21.33,-21.96 C-21.91,-21.96 -22.39,-22.43 -22.39,-23.02 C-22.39,-23.61 -21.91,-24.08 -21.33,-24.08 C-21.33,-24.08 -17.38,-24.08 -17.38,-24.08 C-16.79,-24.08 -16.32,-23.61 -16.32,-23.02 C-16.32,-22.43 -16.79,-21.96 -17.38,-21.96 M-26.944000244140625,-21.957000732421875 C-26.944000244140625,-21.957000732421875 -28.763999938964844,-21.957000732421875 -28.763999938964844,-21.957000732421875 C-29.3439998626709,-21.957000732421875 -29.823999404907227,-22.427000045776367 -29.823999404907227,-23.017000198364258 C-29.823999404907227,-23.60700035095215 -29.3439998626709,-24.07699966430664 -28.763999938964844,-24.07699966430664 C-28.763999938964844,-24.07699966430664 -26.944000244140625,-24.07699966430664 -26.944000244140625,-24.07699966430664 C-26.354000091552734,-24.07699966430664 -25.874000549316406,-23.60700035095215 -25.874000549316406,-23.017000198364258 C-25.874000549316406,-22.427000045776367 -26.354000091552734,-21.957000732421875 -26.944000244140625,-21.957000732421875">
                </path>
                <g opacity="1" transform="matrix(1,0,0,1,28.76099967956543,0)"></g>
                <g opacity="1" transform="matrix(1,0,0,1,-0.2280000001192093,-23.017000198364258)"></g>
            </g>
        </g>
        <g transform="matrix(1,0,0,1,637.0700073242188,534.4530029296875)" opacity="0.9999995191680996"
            style="display: none;">
            <g opacity="1" transform="matrix(3,0,0,3,0,0)">
                <path fill="rgb(30,36,58)" fill-opacity="1"
                    d=" M8.871000289916992,12.364999771118164 C8.871000289916992,12.364999771118164 -8.729000091552734,12.364999771118164 -8.729000091552734,12.364999771118164 C-9.279000282287598,12.364999771118164 -9.718999862670898,11.925000190734863 -9.718999862670898,11.375 C-9.718999862670898,10.835000038146973 -9.279000282287598,10.395000457763672 -8.729000091552734,10.395000457763672 C-8.729000091552734,10.395000457763672 8.871000289916992,10.395000457763672 8.871000289916992,10.395000457763672 C9.420999526977539,10.395000457763672 9.861000061035156,10.835000038146973 9.861000061035156,11.375 C9.861000061035156,11.925000190734863 9.420999526977539,12.364999771118164 8.871000289916992,12.364999771118164 M8.871000289916992,4.794000148773193 C8.871000289916992,4.794000148773193 -8.729000091552734,4.794000148773193 -8.729000091552734,4.794000148773193 C-9.279000282287598,4.794000148773193 -9.718999862670898,4.354000091552734 -9.718999862670898,3.803999900817871 C-9.718999862670898,3.2639999389648438 -9.279000282287598,2.8239998817443848 -8.729000091552734,2.8239998817443848 C-8.729000091552734,2.8239998817443848 8.871000289916992,2.8239998817443848 8.871000289916992,2.8239998817443848 C9.420999526977539,2.8239998817443848 9.861000061035156,3.2639999389648438 9.861000061035156,3.803999900817871 C9.861000061035156,4.354000091552734 9.420999526977539,4.794000148773193 8.871000289916992,4.794000148773193 M8.871000289916992,-2.7780001163482666 C8.871000289916992,-2.7780001163482666 -8.729000091552734,-2.7780001163482666 -8.729000091552734,-2.7780001163482666 C-9.279000282287598,-2.7780001163482666 -9.718999862670898,-3.2179999351501465 -9.718999862670898,-3.7679998874664307 C-9.718999862670898,-4.308000087738037 -9.279000282287598,-4.748000144958496 -8.729000091552734,-4.748000144958496 C-8.729000091552734,-4.748000144958496 8.871000289916992,-4.748000144958496 8.871000289916992,-4.748000144958496 C9.420999526977539,-4.748000144958496 9.861000061035156,-4.308000087738037 9.861000061035156,-3.7679998874664307 C9.861000061035156,-3.2179999351501465 9.420999526977539,-2.7780001163482666 8.871000289916992,-2.7780001163482666 M8.871000289916992,-10.348999977111816 C8.871000289916992,-10.348999977111816 -8.729000091552734,-10.348999977111816 -8.729000091552734,-10.348999977111816 C-9.279000282287598,-10.348999977111816 -9.718999862670898,-10.788999557495117 -9.718999862670898,-11.33899974822998 C-9.718999862670898,-11.878999710083008 -9.279000282287598,-12.319000244140625 -8.729000091552734,-12.319000244140625 C-8.729000091552734,-12.319000244140625 8.871000289916992,-12.319000244140625 8.871000289916992,-12.319000244140625 C9.420999526977539,-12.319000244140625 9.861000061035156,-11.878999710083008 9.861000061035156,-11.33899974822998 C9.861000061035156,-10.788999557495117 9.420999526977539,-10.348999977111816 8.871000289916992,-10.348999977111816 M12.803999900817871,19.861000061035156 C12.803999900817871,19.861000061035156 -12.805999755859375,19.861000061035156 -12.805999755859375,19.861000061035156 C-14.446000099182129,19.861000061035156 -15.78600025177002,18.520999908447266 -15.78600025177002,16.881000518798828 C-15.78600025177002,16.881000518798828 -15.78600025177002,-16.888999938964844 -15.78600025177002,-16.888999938964844 C-15.78600025177002,-18.52899932861328 -14.446000099182129,-19.858999252319336 -12.805999755859375,-19.858999252319336 C-12.805999755859375,-19.858999252319336 12.803999900817871,-19.858999252319336 12.803999900817871,-19.858999252319336 C14.444000244140625,-19.858999252319336 15.784000396728516,-18.52899932861328 15.784000396728516,-16.888999938964844 C15.784000396728516,-16.888999938964844 15.784000396728516,16.881000518798828 15.784000396728516,16.881000518798828 C15.784000396728516,18.520999908447266 14.444000244140625,19.861000061035156 12.803999900817871,19.861000061035156 C12.803999900817871,19.861000061035156 12.803999900817871,19.861000061035156 12.803999900817871,19.861000061035156z M-12.802000045776367,-17.891000747680664 C-13.362000465393066,-17.891000747680664 -13.812000274658203,-17.44099998474121 -13.812000274658203,-16.881000518798828 C-13.812000274658203,-16.881000518798828 -13.812000274658203,16.888999938964844 -13.812000274658203,16.888999938964844 C-13.812000274658203,17.43899917602539 -13.362000465393066,17.888999938964844 -12.802000045776367,17.888999938964844 C-12.802000045776367,17.888999938964844 12.807999610900879,17.888999938964844 12.807999610900879,17.888999938964844 C13.357999801635742,17.888999938964844 13.807999610900879,17.43899917602539 13.807999610900879,16.888999938964844 C13.807999610900879,16.888999938964844 13.807999610900879,-16.881000518798828 13.807999610900879,-16.881000518798828 C13.807999610900879,-17.44099998474121 13.357999801635742,-17.891000747680664 12.807999610900879,-17.891000747680664 C12.807999610900879,-17.891000747680664 -12.802000045776367,-17.891000747680664 -12.802000045776367,-17.891000747680664z">
                </path>
                <g opacity="1" transform="matrix(1,0,0,1,0,0)"></g>
            </g>
        </g>
    </g>
</svg>